<svg width="70" height="56" viewBox="0 0 70 56" fill="none" xmlns="http://www.w3.org/2000/svg">
<path d="M1.82422 54.0373V1.80392H68.2822V54.0373H1.82422Z" stroke="black"/>
<path d="M25.3433 27.0933L22.1485 28.928L21.2928 27.4373L24.4876 25.6025C27.1119 24.15 28.424 21.8373 28.424 18.6647C28.424 12.7399 23.9361 9.77744 14.9602 9.77744H9.7115V48.1933H8V8.05734H14.9602C19.9806 8.05734 23.765 8.98239 26.3132 10.8324C28.8615 12.6901 30.1355 15.3009 30.1355 18.6647C30.1355 22.4872 28.5381 25.2967 25.3433 27.0933ZM39.0354 48.1933V46.4732H60.03L47.9353 13.0456L35.2131 48.1933H33.3875L47.9353 8L62.4832 48.1933H39.0354Z" fill="#222222"/>
</svg>
