<svg width="762" height="442" viewBox="0 0 762 442" fill="none" xmlns="http://www.w3.org/2000/svg">
<path d="M721.792 266.434C694.862 336.193 644.232 397.309 573.906 424.168C564.759 427.656 555.419 430.615 545.933 433.03C495.759 445.829 440.868 441.377 394.616 418.057C374.986 408.151 357.086 395.062 337.385 385.299C317.684 375.536 295.186 369.146 273.743 373.965C255.28 378.115 239.703 390.006 224.019 400.599C187.046 425.573 142.589 445.337 98.8082 436.759C78.6626 432.817 58.8252 421.898 49.4693 403.646C28.7905 363.295 67.7899 315.321 59.8917 270.696C54.8375 242.135 31.7531 220.747 17.4023 195.542C-7.1575 152.429 -4.25417 95.1595 24.5421 54.761C53.3384 14.3626 106.499 -7.06667 155.239 2.09782C214.675 13.2778 259.611 63.5995 317.405 81.4068C353.549 92.5335 392.791 89.2138 427.311 74.5601C483.085 50.8783 559.709 14.5582 622.474 20.4742C655.851 23.6219 688.587 38.4416 710.617 63.7477C738.465 95.693 746.814 141.047 742.169 183.171C738.98 211.685 732.131 239.67 721.792 266.434Z" fill="#A2CBE0"/>
<path d="M739.709 321.61C738.471 321.609 737.238 321.459 736.036 321.166C732.233 320.23 728.93 317.878 726.802 314.59C724.674 311.301 723.881 307.323 724.585 303.47C725.289 299.616 727.437 296.176 730.59 293.852C733.743 291.529 737.663 290.497 741.551 290.968C745.438 291.438 749 293.376 751.508 296.384C754.016 299.393 755.282 303.245 755.047 307.156C754.812 311.067 753.094 314.74 750.243 317.426C747.393 320.113 743.625 321.609 739.709 321.61ZM739.709 297.792C737.672 297.8 735.708 298.552 734.187 299.908C732.666 301.264 731.693 303.129 731.452 305.153C731.21 307.176 731.716 309.219 732.875 310.895C734.033 312.571 735.764 313.766 737.742 314.254V314.254C738.887 314.529 740.078 314.559 741.235 314.341C742.392 314.123 743.49 313.662 744.457 312.989C745.424 312.316 746.237 311.446 746.844 310.436C747.45 309.426 747.836 308.299 747.976 307.129C748.115 305.959 748.006 304.773 747.655 303.649C747.303 302.524 746.718 301.487 745.937 300.605C745.156 299.722 744.198 299.016 743.124 298.531C742.051 298.046 740.887 297.795 739.709 297.792V297.792Z" fill="#E7F6FF"/>
<path d="M725.682 337.919C726.556 334.314 724.343 330.683 720.74 329.809C717.137 328.935 713.507 331.148 712.634 334.753C711.76 338.358 713.973 341.989 717.576 342.863C721.179 343.737 724.808 341.523 725.682 337.919Z" fill="#E7F6FF"/>
<path d="M32.7011 320.146C28.6314 320.057 24.761 318.365 21.9302 315.439C19.0994 312.512 17.5365 308.587 17.581 304.515C17.6255 300.442 19.2736 296.552 22.1677 293.688C25.0618 290.824 28.9682 289.218 33.0388 289.218C37.1095 289.218 41.0159 290.824 43.91 293.688C46.804 296.552 48.4522 300.442 48.4967 304.515C48.5411 308.587 46.9783 312.512 44.1475 315.439C41.3166 318.365 37.4463 320.057 33.3766 320.146H32.7011ZM32.7011 296.333H32.3515C30.1535 296.381 28.063 297.294 26.5338 298.875C25.0047 300.455 24.1604 302.575 24.1842 304.774C24.208 306.974 25.098 309.075 26.6609 310.622C28.2239 312.169 30.3337 313.036 32.5322 313.036C34.7308 313.036 36.8405 312.169 38.4035 310.622C39.9665 309.075 40.8565 306.974 40.8803 304.774C40.9041 302.575 40.0598 300.455 38.5306 298.875C37.0015 297.294 34.911 296.381 32.713 296.333H32.7011Z" fill="#E7F6FF"/>
<path d="M21.6796 346.1C25.3838 345.941 28.2571 342.807 28.0973 339.101C27.9375 335.395 24.8052 332.52 21.101 332.68C17.3969 332.84 14.5236 335.974 14.6834 339.68C14.8431 343.386 17.9755 346.26 21.6796 346.1Z" fill="#E7F6FF"/>
<path d="M420.142 70.1021C416.453 70.1054 412.885 68.7874 410.083 66.3866C407.282 63.9858 405.432 60.6608 404.868 57.0136C404.305 53.3664 405.065 49.6378 407.012 46.5029C408.958 43.3679 411.962 41.0337 415.48 39.9227C418.997 38.8117 422.796 38.9973 426.189 40.446C429.582 41.8947 432.344 44.5107 433.976 47.8205C435.608 51.1303 436.001 54.9153 435.085 58.4902C434.169 62.0651 432.004 65.1939 428.982 67.3101C426.391 69.1243 423.305 70.0989 420.142 70.1021V70.1021ZM420.094 46.2958C417.936 46.2936 415.86 47.1248 414.299 48.6162C412.738 50.1076 411.813 52.1441 411.716 54.3013C411.619 56.4585 412.358 58.5699 413.779 60.1954C415.2 61.8209 417.193 62.8352 419.342 63.0268C421.492 63.2183 423.633 62.5724 425.319 61.2237C427.004 59.875 428.105 57.9275 428.39 55.7871C428.676 53.6467 428.125 51.4787 426.852 49.7347C425.579 47.9908 423.683 46.8056 421.558 46.4262C421.075 46.34 420.585 46.2964 420.094 46.2958V46.2958Z" fill="#E7F6FF"/>
<path d="M388.623 69.258C391.658 67.1283 392.393 62.9399 390.265 59.9029C388.136 56.8659 383.95 56.1304 380.914 58.2601C377.878 60.3898 377.143 64.5782 379.272 67.6152C381.401 70.6522 385.587 71.3877 388.623 69.258Z" fill="#E7F6FF"/>
<path class="cloud-right" d="M763.753 149.773C763.753 143.254 761.165 137.003 756.558 132.394C751.951 127.785 745.702 125.196 739.187 125.196C738.642 125.196 738.103 125.196 737.57 125.249C737.605 124.716 737.623 124.176 737.623 123.631C737.622 120.138 736.877 116.685 735.438 113.503C733.998 110.32 731.897 107.481 729.275 105.175C726.652 102.869 723.569 101.149 720.229 100.129C716.89 99.1095 713.371 98.8136 709.909 99.2613C706.446 99.709 703.119 100.89 700.148 102.726C697.178 104.561 694.632 107.009 692.682 109.906C690.731 112.804 689.421 116.084 688.837 119.528C688.253 122.971 688.41 126.5 689.297 129.879C686.328 127.725 682.915 126.263 679.308 125.601C675.7 124.939 671.99 125.093 668.451 126.053C664.911 127.013 661.63 128.753 658.851 131.147C656.071 133.54 653.862 136.526 652.386 139.885C650.91 143.244 650.205 146.891 650.322 150.558C650.439 154.226 651.375 157.82 653.062 161.079C654.749 164.337 657.144 167.175 660.07 169.387C662.997 171.598 666.382 173.126 669.975 173.858C671.443 177.751 673.874 181.208 677.042 183.904C680.209 186.601 684.009 188.448 688.086 189.274C692.162 190.1 696.381 189.877 700.348 188.626C704.314 187.375 707.898 185.137 710.764 182.121C713.696 184.335 717.088 185.864 720.689 186.593C724.29 187.323 728.008 187.235 731.57 186.336C735.133 185.437 738.448 183.751 741.273 181.4C744.097 179.05 746.359 176.096 747.891 172.755C752.554 170.987 756.568 167.841 759.401 163.736C762.234 159.631 763.752 154.761 763.753 149.773Z" fill="white"/>
<path class="cloud-left" d="M127.437 89.7378C127.441 86.5088 126.808 83.3109 125.575 80.3267C124.342 77.3425 122.534 74.6307 120.253 72.346C117.972 70.0614 115.263 68.2489 112.282 67.0119C109.301 65.775 106.105 65.1379 102.878 65.1371C102.333 65.1371 101.793 65.1371 101.26 65.1905C101.296 64.657 101.313 64.1175 101.313 63.5722C101.313 60.0791 100.568 56.6263 99.1282 53.4439C97.6887 50.2616 95.5877 47.4228 92.9652 45.1168C90.3426 42.8107 87.2589 41.0905 83.9195 40.0707C80.5802 39.0509 77.0619 38.755 73.5992 39.2027C70.1365 39.6504 66.809 40.8314 63.8385 42.667C60.8679 44.5026 58.3226 46.9506 56.3722 49.8478C54.4218 52.7451 53.1111 56.025 52.5275 59.4689C51.9439 62.9128 52.1008 66.4417 52.9877 69.8202C50.0187 67.666 46.6053 66.2043 42.998 65.5423C39.3906 64.8803 35.6808 65.0348 32.1409 65.9944C28.601 66.954 25.3208 68.6945 22.541 71.088C19.7612 73.4815 17.5524 76.4673 16.0766 79.8264C14.6008 83.1855 13.8955 86.8325 14.0125 90.4998C14.1295 94.1672 15.0658 97.7618 16.7526 101.02C18.4395 104.278 20.8341 107.117 23.7608 109.328C26.6875 111.54 30.0719 113.067 33.6658 113.799C35.1345 117.689 37.5657 121.142 40.7318 123.836C43.8979 126.53 47.6955 128.376 51.769 129.202C55.8425 130.027 60.0588 129.806 64.0232 128.557C67.9877 127.308 71.5707 125.074 74.4368 122.062C77.3691 124.277 80.7606 125.805 84.3614 126.534C87.9621 127.264 91.6806 127.176 95.243 126.277C98.8054 125.379 102.121 123.692 104.945 121.342C107.77 118.991 110.032 116.037 111.564 112.696C116.225 110.932 120.239 107.79 123.074 103.69C125.909 99.5896 127.431 94.7236 127.437 89.7378V89.7378Z" fill="white"/>
<path d="M565.368 440.399H211.932V432.692H565.368C566.389 432.692 567.369 433.098 568.091 433.821C568.813 434.544 569.219 435.524 569.219 436.546C569.219 437.567 568.813 438.547 568.091 439.27C567.369 439.993 566.389 440.399 565.368 440.399Z" fill="#426572"/>
<path d="M196.123 440.399H174.514C173.493 440.399 172.513 439.993 171.791 439.27C171.068 438.547 170.663 437.567 170.663 436.546C170.663 435.524 171.068 434.544 171.791 433.821C172.513 433.098 173.493 432.692 174.514 432.692H196.123C197.144 432.692 198.124 433.098 198.846 433.821C199.569 434.544 199.974 435.524 199.974 436.546C199.974 437.567 199.569 438.547 198.846 439.27C198.124 439.993 197.144 440.399 196.123 440.399Z" fill="#426572"/>
<path d="M160.489 440.399H153.604C152.583 440.399 151.603 439.993 150.881 439.27C150.159 438.547 149.753 437.567 149.753 436.546C149.753 435.524 150.159 434.544 150.881 433.821C151.603 433.098 152.583 432.692 153.604 432.692H160.489C161.511 432.692 162.49 433.098 163.213 433.821C163.935 434.544 164.341 435.524 164.341 436.546C164.341 437.567 163.935 438.547 163.213 439.27C162.49 439.993 161.511 440.399 160.489 440.399Z" fill="#426572"/>
<path d="M689.298 440.399H580.667V432.692H689.298C690.32 432.692 691.299 433.098 692.022 433.821C692.744 434.544 693.15 435.524 693.15 436.546C693.15 437.567 692.744 438.547 692.022 439.27C691.299 439.993 690.32 440.399 689.298 440.399Z" fill="#426572"/>
<path d="M133.909 440.399H25.271V432.692H133.909C134.93 432.692 135.91 433.098 136.632 433.821C137.354 434.544 137.76 435.524 137.76 436.546C137.76 437.567 137.354 438.547 136.632 439.27C135.91 439.993 134.93 440.399 133.909 440.399Z" fill="#426572"/>
<path d="M168.334 139.636H564.028C571.17 139.636 578.019 142.473 583.07 147.524C588.122 152.576 590.961 159.427 590.964 166.572V422.81H141.398V166.572C141.401 159.427 144.24 152.576 149.291 147.524C154.343 142.473 161.192 139.636 168.334 139.636V139.636Z" fill="#EBF0F9"/>
<path d="M575.339 159.287H158.806V397.35H575.339V159.287Z" fill="#637F91"/>
<path d="M155.684 396.906H577.111C577.111 398.796 576.363 400.609 575.031 401.949C573.698 403.289 571.89 404.046 570.001 404.055H162.823C160.928 404.055 159.111 403.302 157.771 401.961C156.431 400.621 155.678 398.802 155.678 396.906H155.684Z" fill="white"/>
<g opacity="0.5">
<path opacity="0.5" d="M283.277 158.398L220.997 398.691H189.635L251.915 158.398H283.277Z" fill="#A7BCD5"/>
<path opacity="0.5" d="M363.213 158.398L300.939 398.691H235.17L297.449 158.398H363.213Z" fill="#A7BCD5"/>
</g>
<path d="M594.519 426.367H137.843V155.084C137.849 150.045 139.852 145.215 143.414 141.652C146.975 138.09 151.803 136.085 156.839 136.079H575.523C580.559 136.085 585.387 138.09 588.948 141.652C592.509 145.215 594.513 150.045 594.519 155.084V426.367ZM144.953 419.254H587.409V155.084C587.406 151.931 586.152 148.908 583.924 146.679C581.696 144.45 578.674 143.196 575.523 143.193H156.839C153.687 143.196 150.666 144.45 148.438 146.679C146.209 148.908 144.956 151.931 144.953 155.084V419.254Z" fill="#426572"/>
<path d="M84.7002 414.328H659.72V416.219C659.72 422.351 657.285 428.231 652.951 432.567C648.618 436.902 642.74 439.338 636.611 439.338H107.808C101.68 439.338 95.802 436.902 91.4684 432.567C87.1348 428.231 84.7002 422.351 84.7002 416.219V414.328Z" fill="#EBF0F9"/>
<path opacity="0.5" d="M656.775 426.386C655.511 429.674 653.28 432.502 650.376 434.496C647.472 436.49 644.032 437.556 640.51 437.554H100.325C96.8052 437.554 93.368 436.486 90.4666 434.493C87.5652 432.499 85.3358 429.672 84.0723 426.386H656.775Z" fill="#A7BCD5"/>
<path d="M633.927 441.999H105.13C98.0609 441.991 91.2836 439.178 86.2849 434.177C81.2863 429.176 78.4746 422.396 78.4668 415.324V409.876H660.596V415.324C660.589 422.397 657.776 429.178 652.776 434.18C647.776 439.181 640.997 441.993 633.927 441.999V441.999ZM85.6422 416.989C86.0592 421.871 88.2923 426.419 91.8998 429.733C95.5073 433.047 100.227 434.886 105.124 434.886H633.927C638.825 434.886 643.544 433.047 647.151 429.733C650.759 426.419 652.992 421.871 653.409 416.989H85.6422Z" fill="#426572"/>
<path d="M578 399.568H154.351V155.73H578V399.568ZM161.461 392.454H570.89V162.844H161.461V392.454Z" fill="#426572"/>
<path d="M511.668 82.8654V396.011H227.728V82.8654C227.739 81.4538 228.304 80.1031 229.302 79.1049C230.3 78.1067 231.65 77.5411 233.061 77.5303H506.312C506.634 77.5305 506.955 77.5602 507.271 77.6192C508.499 77.8464 509.61 78.4944 510.412 79.4517C511.214 80.4091 511.658 81.6161 511.668 82.8654V82.8654Z" fill="white"/>
<path d="M232.195 103.412H512.562V84.5729L507.2 77.5068H261.661H237.552L228.623 84.5729V103.412H232.195Z" fill="#E2F2FF"/>
<path d="M516.117 399.568H225.067V82.8654C225.077 80.5101 226.016 78.2538 227.681 76.5883C229.346 74.9228 231.601 73.983 233.955 73.9736H507.194C509.548 73.983 511.804 74.9228 513.468 76.5883C515.133 78.2538 516.072 80.5101 516.082 82.8654L516.117 399.568ZM232.178 392.455H509.007V82.8654C508.995 82.3976 508.804 81.9522 508.473 81.6212C508.142 81.2903 507.697 81.0991 507.23 81.0871H233.979C233.511 81.0991 233.066 81.2903 232.735 81.6212C232.404 81.9522 232.213 82.3976 232.201 82.8654L232.178 392.455Z" fill="#426572"/>
<path d="M495.095 88.4844H245.326C243.353 88.4844 241.753 90.0847 241.753 92.0589C241.753 94.033 243.353 95.6334 245.326 95.6334H495.095C497.068 95.6334 498.668 94.033 498.668 92.0589C498.668 90.0847 497.068 88.4844 495.095 88.4844Z" fill="#CADCE8"/>
<path d="M321.209 136.957H262.829V203.509H321.209V136.957Z" fill="#215171" fill-opacity="0.8"/>
<path d="M465.149 136.957H326.72V203.509H465.149V136.957Z" fill="#215171" fill-opacity="0.8"/>
<path d="M465.15 210.878H399.789V277.43H465.15V210.878Z" fill="#DDE4ED"/>
<path d="M394.278 210.878H263.563V277.43H394.278V210.878Z" fill="#DDE4ED"/>
<path d="M465.516 284.798H263.563V351.35H465.516V284.798Z" fill="#DDE4ED"/>
<path d="M467.3 360.296H415.514V367.409H467.3V360.296Z" fill="#DDE4ED"/>
<path d="M184.403 379.051H99.6373C98.2416 379.061 96.866 378.718 95.6378 378.055C93.8603 377.083 92.7227 375.488 92.7227 373.692L92.7701 257.115C92.7713 256.352 92.9758 255.603 93.3626 254.945C94.441 253.072 96.8762 251.756 99.6847 251.756H184.45C187.413 251.756 189.907 253.19 190.903 255.194C191.204 255.787 191.363 256.443 191.365 257.109L191.323 373.692C191.323 376.383 188.722 378.63 185.363 378.998C185.044 379.034 184.723 379.051 184.403 379.051V379.051Z" fill="white"/>
<path d="M186.708 378.157L101.913 378.139C100.517 378.149 99.1414 377.806 97.9132 377.143C96.1357 376.171 94.998 374.576 94.998 372.78L95.0454 256.203C95.0467 255.44 95.2512 254.691 95.638 254.033C96.7163 252.16 99.1516 250.844 101.96 250.844H103.116L103.098 365.631C103.098 367.409 104.247 369.022 106.013 369.994C107.241 370.657 108.617 371 110.012 370.99H193.628V372.768C193.628 375.46 191.027 377.706 187.668 378.074C187.349 378.12 187.029 378.147 186.708 378.157Z" fill="#D6DEE9"/>
<path d="M185.553 381.713H100.781C98.7824 381.724 96.8135 381.228 95.0575 380.273C92.0949 378.631 90.3174 375.833 90.3174 372.798L90.3648 256.22C90.3719 254.83 90.746 253.466 91.4491 252.266C93.2266 249.213 96.7817 247.311 100.84 247.311H185.606C189.754 247.311 193.457 249.356 195.14 252.533L195.614 253.262V253.594C195.92 254.44 196.077 255.332 196.076 256.232L196.028 372.81C196.028 377.279 192.1 381.109 186.898 381.648C186.451 381.695 186.002 381.717 185.553 381.713V381.713ZM100.823 254.394C99.2288 254.394 97.9846 255.1 97.5876 255.799C97.5099 255.917 97.4668 256.055 97.4631 256.196L97.4157 372.774C97.4157 373.165 97.8483 373.663 98.4941 374.025C99.1984 374.398 99.9844 374.589 100.781 374.582H185.547C185.733 374.583 185.919 374.573 186.104 374.552C187.881 374.363 188.912 373.367 188.912 372.774L188.96 256.196C188.96 256.126 188.948 256.056 188.924 255.989L188.592 255.479C187.773 254.74 186.697 254.35 185.594 254.394H100.829H100.823Z" fill="#426572"/>
<path d="M175.776 302.203H118.29V309.316H175.776V302.203Z" fill="#426572"/>
<path d="M175.776 287.359H118.29V294.473H175.776V287.359Z" fill="#426572"/>
<path d="M175.776 319.021H118.29V326.134H175.776V319.021Z" fill="#426572"/>
<path class="checkmark-background" d="M568.081 190.819C604.503 190.819 634.029 161.28 634.029 124.841C634.029 88.4033 604.503 58.8643 568.081 58.8643C531.66 58.8643 502.134 88.4033 502.134 124.841C502.134 161.28 531.66 190.819 568.081 190.819Z" fill="#7DE099"/>
<path class="checkmark-border" d="M566.511 197.51C552.765 197.51 539.327 193.432 527.898 185.792C516.468 178.151 507.56 167.292 502.299 154.586C497.039 141.88 495.663 127.899 498.344 114.411C501.026 100.923 507.645 88.5329 517.366 78.8084C527.086 69.0839 539.47 62.4615 552.952 59.7785C566.434 57.0955 580.408 58.4725 593.108 63.7354C605.808 68.9982 616.663 77.9106 624.3 89.3454C631.937 100.78 636.013 114.224 636.013 127.976C635.993 146.412 628.664 164.086 615.634 177.122C602.604 190.157 584.938 197.49 566.511 197.51ZM566.511 65.5618C554.171 65.5618 542.108 69.2227 531.848 76.0815C521.588 82.9404 513.591 92.6891 508.868 104.095C504.146 115.501 502.91 128.052 505.318 140.16C507.725 152.268 513.668 163.391 522.393 172.12C531.119 180.85 542.236 186.795 554.339 189.203C566.442 191.612 578.987 190.376 590.387 185.651C601.788 180.927 611.532 172.926 618.388 162.661C625.244 152.396 628.903 140.328 628.903 127.982C628.886 111.433 622.307 95.5658 610.61 83.8634C598.913 72.161 583.053 65.579 566.511 65.5618V65.5618Z" fill="#426572"/>
<path class="checkmark-check" d="M599.823 100.998C598.4 100.202 596.725 99.989 595.149 100.402C593.572 100.816 592.217 101.824 591.367 103.215L579.95 121.888L561.706 151.693L561.196 152.529L540.132 135.67L536.293 132.599C533.775 130.584 529.977 129.95 527.553 132.599C525.491 134.846 524.857 139.185 527.553 141.343L554.637 163.015L558.477 166.086C560.071 167.366 561.587 168.066 563.667 167.787C564.597 167.673 565.487 167.346 566.27 166.832C567.053 166.318 567.707 165.631 568.182 164.823L579.6 146.15L597.849 116.351L602.062 109.463C603.727 106.7 602.732 102.551 599.823 100.998Z" fill="white"/>
</svg>
