<?xml version="1.0" encoding="utf-8"?>
<!-- Generator: Adobe Illustrator 26.3.1, SVG Export Plug-In . SVG Version: 6.00 Build 0)  -->
<svg version="1.1" id="Layer_1" xmlns="http://www.w3.org/2000/svg" xmlns:xlink="http://www.w3.org/1999/xlink" x="0px" y="0px"
	 viewBox="0 0 373 373" style="enable-background:new 0 0 373 373;" xml:space="preserve">
<path style="fill:#215171;" d="M240.029,32.327c0.712,0,1.426,0.713,1.426,1.426V58.7c0,0.712-0.713,1.426-1.426,1.426
	s-1.426-0.712-1.426-1.426V33.753C238.604,33.04,239.316,32.327,240.029,32.327z"/>
<path style="fill:#215171;" d="M253.571,46.227c0,0.712-0.713,1.426-1.426,1.426h-24.946c-0.713,0-1.427-0.712-1.427-1.426
	c0-0.712,0.713-1.426,1.427-1.426h24.946C253.215,44.801,253.571,45.513,253.571,46.227z"/>
<path style="fill:#215171;" d="M22.283,94.692c0.712,0,1.069,0.357,1.069,0.712v16.393c0,0.357-0.357,0.713-0.712,0.713h-0.357
	c-0.357,0-0.712-0.357-0.712-0.713V95.406C21.57,94.692,21.57,94.692,22.283,94.692z"/>
<path style="fill:#215171;" d="M31.192,103.246c0,0.712-0.357,1.069-0.712,1.069H14.087c-0.357,0-0.713-0.357-0.713-0.713v-0.356
	c0-0.357,0.357-0.713,0.713-0.713H30.48C30.835,102.533,31.192,102.89,31.192,103.246z"/>
<path style="fill:#215171;" d="M350.862,120.708h0.712c0.357,0,0.713,0.357,0.713,0.712v19.957c0,0.357-0.357,0.713-0.713,0.713
	h-0.712c-0.357,0-0.713-0.357-0.713-0.713v-19.955C350.149,121.065,350.506,120.708,350.862,120.708z"/>
<path style="fill:#215171;" d="M361.91,131.044v0.713c0,0.357-0.357,0.712-0.713,0.712h-19.956c-0.357,0-0.713-0.356-0.713-0.712
	v-0.713c0-0.356,0.357-0.712,0.713-0.712h20.313C361.553,130.331,361.91,130.688,361.91,131.044z"/>
<path style="fill:#215171;" d="M113.159,43.374c0-0.357,0-0.357,0.357-0.357h8.91c0.357,0,0.357,0.357,0.357,0.357v0.357
	c0,0.357-0.357,0.357-0.357,0.357h-8.91C113.159,44.087,113.159,43.73,113.159,43.374z"/>
<path style="fill:#215171;" d="M117.792,48.364c-0.356,0-0.356-0.357-0.356-0.357v-8.91c0-0.357,0.356-0.357,0.356-0.357h0.357
	c0.357,0,0.357,0.357,0.357,0.357v8.91C118.505,48.364,118.149,48.364,117.792,48.364z"/>
<path style="fill:#215171;" d="M177.307,74.023c0-0.357,0.356-0.357,0.356-0.357h8.91c0.357,0,0.357,0.357,0.357,0.357v0.357
	c0,0.357-0.357,0.357-0.357,0.357h-8.91C177.663,74.735,177.307,74.378,177.307,74.023z"/>
<path style="fill:#215171;" d="M181.941,79.012c-0.357,0-0.357-0.357-0.357-0.357v-8.91c0-0.357,0.357-0.357,0.357-0.357h0.357
	c0.356,0,0.356,0.357,0.356,0.357v8.91C182.653,78.655,182.653,79.012,181.941,79.012z"/>
<path style="fill:#215171;" d="M299.9,73.666c0-0.357,0.357-0.357,0.357-0.357h8.91c0.357,0,0.357,0.357,0.357,0.357v0.357
	c0,0.357-0.357,0.357-0.357,0.357h-8.91C300.257,74.023,299.9,74.023,299.9,73.666z"/>
<path style="fill:#215171;" d="M304.89,78.656c-0.357,0-0.357-0.357-0.357-0.357V69.39c0-0.357,0.357-0.357,0.357-0.357h0.357
	c0.357,0,0.357,0.357,0.357,0.357v8.91C305.247,78.299,305.247,78.656,304.89,78.656z"/>
<g>
	<path style="fill:none;stroke:#215171;stroke-width:5;stroke-miterlimit:10;" d="M178,182.525h-70c-3.314,0-6-2.686-6-6V121
		c0-3.314,2.686-6,6-6h70c3.314,0,6,2.686,6,6v55.525C184,179.839,181.314,182.525,178,182.525z"/>
	<path style="fill:none;stroke:#215171;stroke-width:5;stroke-miterlimit:10;" d="M279,213h-70c-3.314,0-6-2.686-6-6v-86
		c0-3.314,2.686-6,6-6h70c3.314,0,6,2.686,6,6v86C285,210.314,282.314,213,279,213z"/>
	<path style="fill:none;stroke:#215171;stroke-width:5;stroke-miterlimit:10;" d="M178,300h-70c-3.314,0-6-2.686-6-6v-93.613
		c0-3.314,2.686-6,6-6h70c3.314,0,6,2.686,6,6V294C184,297.314,181.314,300,178,300z"/>
	<path style="fill:none;stroke:#215171;stroke-width:5;stroke-miterlimit:10;" d="M279,300h-70c-3.314,0-6-2.686-6-6v-63
		c0-3.314,2.686-6,6-6h70c3.314,0,6,2.686,6,6v63C285,297.314,282.314,300,279,300z"/>
</g>
</svg>
