<?xml version="1.0" encoding="utf-8"?>
<!-- Generator: Adobe Illustrator 26.0.1, SVG Export Plug-In . SVG Version: 6.00 Build 0)  -->
<svg version="1.1" id="Layer_1" xmlns="http://www.w3.org/2000/svg" xmlns:xlink="http://www.w3.org/1999/xlink" x="0px" y="0px"
	 viewBox="0 0 470 409" style="enable-background:new 0 0 470 409;" xml:space="preserve">
<g>
	<defs>
		<rect id="SVGID_1_" y="0" width="470" height="409"/>
	</defs>
	<clipPath id="SVGID_00000165937743636771755060000015963363802980382370_">
		<use xlink:href="#SVGID_1_"  style="overflow:visible;"/>
	</clipPath>
	<g style="clip-path:url(#SVGID_00000165937743636771755060000015963363802980382370_);">
		<path style="fill:#BAC9D3;" d="M231.634,409c62.372,0,112.934-7.54,112.934-16.841c0-9.302-50.562-16.842-112.934-16.842
			s-112.935,7.54-112.935,16.842C118.699,401.46,169.262,409,231.634,409z"/>
		<path style="fill:#215171;" d="M305.641,0c0.499,0.034,0.968,0.247,1.322,0.601c0.353,0.354,0.567,0.824,0.6,1.323v33.682
			c-0.033,0.499-0.247,0.969-0.6,1.323c-0.354,0.354-0.823,0.568-1.322,0.601c-0.499-0.034-0.968-0.247-1.322-0.601
			c-0.353-0.354-0.567-0.824-0.6-1.323V1.925c0.033-0.499,0.247-0.97,0.6-1.323C304.673,0.247,305.142,0.034,305.641,0L305.641,0z"
			/>
		<path style="fill:#215171;" d="M323.91,18.765c-0.033,0.499-0.247,0.969-0.6,1.323c-0.354,0.354-0.823,0.568-1.322,0.601h-33.64
			c-0.499-0.034-0.968-0.247-1.322-0.601c-0.353-0.354-0.566-0.824-0.6-1.323c0.034-0.499,0.247-0.969,0.6-1.323
			c0.354-0.354,0.823-0.567,1.322-0.601h33.64c0.258-0.022,0.518,0.013,0.761,0.102c0.243,0.089,0.464,0.23,0.647,0.413
			c0.183,0.183,0.324,0.404,0.413,0.648C323.898,18.247,323.932,18.507,323.91,18.765z"/>
		<path style="fill:#215171;" d="M12.016,84.206c0.961,0,1.442,0.481,1.442,0.962v22.135c-0.022,0.247-0.13,0.48-0.306,0.656
			c-0.176,0.176-0.408,0.284-0.656,0.306h-0.481c-0.248-0.022-0.48-0.13-0.656-0.306c-0.176-0.176-0.284-0.409-0.306-0.656V85.168
			C11.055,84.206,11.055,84.206,12.016,84.206z"/>
		<path style="fill:#215171;" d="M24.029,95.755c0,0.962-0.481,1.444-0.961,1.444H0.961c-0.248-0.022-0.48-0.13-0.655-0.306
			S0.022,96.484,0,96.237v-0.481c0.022-0.248,0.13-0.48,0.306-0.656s0.408-0.284,0.655-0.306h22.106
			c0.248,0.022,0.48,0.13,0.656,0.306S24.007,95.507,24.029,95.755z"/>
		<path style="fill:#215171;" d="M455.102,119.331h0.961c0.248,0.022,0.48,0.13,0.655,0.306c0.176,0.176,0.284,0.408,0.306,0.656
			v26.946c-0.022,0.248-0.13,0.481-0.306,0.657c-0.175,0.176-0.407,0.284-0.655,0.306h-0.961c-0.248-0.022-0.48-0.13-0.656-0.306
			c-0.176-0.176-0.284-0.409-0.305-0.657v-26.946c0.021-0.248,0.129-0.48,0.305-0.656
			C454.622,119.461,454.854,119.353,455.102,119.331z"/>
		<path style="fill:#215171;" d="M470.002,133.286v0.962c-0.021,0.248-0.13,0.48-0.305,0.656c-0.176,0.176-0.408,0.285-0.656,0.306
			h-26.912c-0.248-0.021-0.48-0.13-0.655-0.306c-0.176-0.176-0.284-0.408-0.306-0.656v-0.962c0.022-0.248,0.13-0.481,0.306-0.657
			c0.175-0.176,0.407-0.284,0.655-0.306h27.393C469.783,132.583,469.952,132.921,470.002,133.286z"/>
		<path style="fill:#215171;" d="M134.559,14.917c0-0.481,0-0.481,0.48-0.481h12.014c0.128,0,0.25,0.051,0.34,0.141
			c0.09,0.09,0.141,0.213,0.141,0.34v0.481c0,0.128-0.051,0.25-0.141,0.34c-0.09,0.09-0.212,0.141-0.34,0.141h-12.014
			C134.559,15.879,134.559,15.398,134.559,14.917z"/>
		<path style="fill:#215171;" d="M140.805,21.652c-0.128,0-0.25-0.051-0.34-0.141s-0.141-0.213-0.141-0.34V9.141
			c0-0.128,0.051-0.25,0.141-0.34c0.09-0.09,0.212-0.141,0.34-0.141h0.48c0.128,0,0.25,0.051,0.34,0.141
			c0.09,0.09,0.141,0.213,0.141,0.34v12.029C141.766,21.652,141.285,21.652,140.805,21.652z"/>
		<path style="fill:#215171;" d="M221.062,56.298c0-0.128,0.051-0.25,0.141-0.34c0.09-0.09,0.213-0.141,0.34-0.141h12.014
			c0.128,0,0.25,0.051,0.34,0.141c0.09,0.09,0.141,0.213,0.141,0.34v0.481c0,0.128-0.051,0.25-0.141,0.34
			c-0.09,0.09-0.212,0.141-0.34,0.141h-12.014C221.282,57,221.113,56.662,221.062,56.298z"/>
		<path style="fill:#215171;" d="M227.309,63.034c-0.128,0-0.25-0.051-0.34-0.141c-0.09-0.09-0.141-0.213-0.141-0.34V50.523
			c0-0.128,0.051-0.25,0.141-0.34c0.09-0.09,0.212-0.141,0.34-0.141h0.48c0.128,0,0.25,0.051,0.34,0.141
			c0.09,0.09,0.141,0.213,0.141,0.34v12.029C228.27,62.553,228.27,63.034,227.309,63.034z"/>
		<path style="fill:#215171;" d="M386.375,55.816c0-0.128,0.051-0.25,0.141-0.34c0.09-0.09,0.212-0.141,0.34-0.141h12.014
			c0.127,0,0.25,0.051,0.34,0.141c0.09,0.09,0.14,0.213,0.14,0.34v0.481c0,0.128-0.05,0.25-0.14,0.34
			c-0.09,0.09-0.213,0.141-0.34,0.141h-12.014C386.856,56.297,386.375,56.297,386.375,55.816z"/>
		<path style="fill:#215171;" d="M393.106,62.552c-0.128,0-0.25-0.051-0.34-0.141c-0.09-0.09-0.141-0.213-0.141-0.34V50.042
			c0-0.128,0.051-0.25,0.141-0.34c0.09-0.09,0.212-0.141,0.34-0.141h0.48c0.128,0,0.25,0.051,0.34,0.141
			c0.09,0.09,0.141,0.213,0.141,0.34v12.029C393.586,62.071,393.586,62.552,393.106,62.552z"/>
		<path style="fill:none;stroke:#215171;stroke-width:0.5;stroke-miterlimit:10;" d="M89.241,198.389h12.735v16.264H89.097
			c-2.141,0-4.195-0.852-5.709-2.368c-1.514-1.516-2.365-3.572-2.365-5.716l0,0c0-1.078,0.213-2.146,0.627-3.142
			c0.414-0.995,1.02-1.899,1.783-2.659c0.764-0.761,1.67-1.362,2.667-1.77C87.097,198.589,88.164,198.382,89.241,198.389
			L89.241,198.389z"/>
		<path style="fill:none;stroke:#215171;stroke-width:0.5;stroke-miterlimit:10;" d="M109.142,184.436H131.2v44.701h-20.953
			c-2.083,0-4.083-0.815-5.574-2.271c-1.491-1.457-2.353-3.439-2.403-5.524v-29.978c-0.007-0.907,0.166-1.807,0.509-2.647
			c0.342-0.841,0.848-1.605,1.486-2.249c0.639-0.644,1.399-1.155,2.236-1.504S108.235,184.436,109.142,184.436L109.142,184.436z"/>
		<path style="fill:none;stroke:#215171;stroke-width:0.5;stroke-miterlimit:10;" d="M141.525,178.371h42.531v60.965h-41.33
			c-3.071,0-6.017-1.222-8.189-3.396c-2.172-2.175-3.392-5.125-3.392-8.2v-39.023c0-1.363,0.268-2.712,0.791-3.971
			c0.522-1.258,1.287-2.401,2.252-3.362c0.964-0.961,2.109-1.722,3.368-2.239S140.164,178.365,141.525,178.371L141.525,178.371z"/>
		<path style="fill:none;stroke:#215171;stroke-width:0.5;stroke-miterlimit:10;" d="M191.271,173.416h-1.49
			c-3.158,0-5.719,2.564-5.719,5.726v58.319c0,3.162,2.561,5.726,5.719,5.726h1.49c3.158,0,5.719-2.564,5.719-5.726v-58.319
			C196.99,175.98,194.429,173.416,191.271,173.416z"/>
		<path style="fill:none;stroke:#215171;stroke-width:0.25;stroke-linecap:round;stroke-miterlimit:10;" d="M143.16,190.161
			c-0.001-0.653,0.131-1.299,0.388-1.899c0.256-0.6,0.632-1.142,1.104-1.592s1.03-0.799,1.641-1.026
			c0.611-0.228,1.262-0.328,1.913-0.295h28.45"/>
		<path style="fill:none;stroke:#215171;stroke-width:0.25;stroke-linecap:round;stroke-miterlimit:10;" d="M116.594,218.261
			v-21.653"/>
		<path style="fill:none;stroke:#215171;stroke-width:0.25;stroke-linecap:round;stroke-miterlimit:10;" d="M123.074,217.685
			v-21.653"/>
		<path style="fill:none;stroke:#215171;stroke-width:0.5;stroke-linecap:round;stroke-miterlimit:10;" d="M195.008,270.662
			l17.493-20.45"/>
		<path style="fill:none;stroke:#215171;stroke-width:0.5;stroke-linecap:round;stroke-miterlimit:10;" d="M258.117,165.573
			l17.493-20.45"/>
		<path style="fill:none;stroke:#215171;stroke-width:0.5;stroke-linecap:round;stroke-miterlimit:10;" d="M271.912,277.735
			l-19.463-18.574"/>
		<path style="fill:none;stroke:#215171;stroke-width:0.5;stroke-linecap:round;stroke-miterlimit:10;" d="M210.11,163.841
			l-17.637-20.306"/>
		<path style="fill:none;stroke:#215171;stroke-width:0.5;stroke-linecap:round;stroke-miterlimit:10;" d="M230.911,260.316
			l-0.817,31.71"/>
		<path style="fill:none;stroke:#215171;stroke-width:0.5;stroke-linecap:round;stroke-miterlimit:10;" d="M234.224,131.217
			l-0.865,31.709"/>
		<path style="fill:none;stroke:#215171;stroke-width:0.5;stroke-miterlimit:10;" d="M252.877,187.032h24.028v9.624h-24.509
			c-1.07,0-2.097-0.426-2.854-1.184c-0.757-0.758-1.183-1.786-1.183-2.858v-1.107c0-1.199,0.476-2.35,1.323-3.198
			c0.848-0.848,1.997-1.325,3.195-1.325V187.032z"/>
		<path style="fill:none;stroke:#215171;stroke-width:0.5;stroke-miterlimit:10;" d="M252.838,223.604h24.028v9.623h-24.509
			c-1.071,0-2.097-0.426-2.854-1.184c-0.757-0.758-1.183-1.786-1.183-2.858v-1.107c0.013-1.191,0.494-2.329,1.34-3.167
			C250.506,224.073,251.648,223.603,252.838,223.604L252.838,223.604z"/>
		<path style="fill:none;stroke:#215171;stroke-width:0.5;stroke-miterlimit:10;" d="M326.313,180.777H276.91v61.783h49.403V180.777
			z"/>
		<path style="fill:none;stroke:#215171;stroke-width:0.5;stroke-miterlimit:10;" d="M304.639,206.136H276.91v11.596h27.729V206.136
			z"/>
		<path style="fill:none;stroke:#215171;stroke-width:0.5;stroke-linecap:round;stroke-miterlimit:10;" d="M287.195,187.562
			l23.164,0.385"/>
		<path style="fill:none;stroke:#215171;stroke-width:0.5;stroke-linecap:round;stroke-miterlimit:10;" d="M314.586,188.141
			l4.565,0.192"/>
		<path style="fill:#FFD700;" d="M303.391,212.054h-25.278v4.475h25.278V212.054z"/>
		<path style="fill:none;stroke:#215171;stroke-width:0.5;stroke-miterlimit:10;" d="M336.595,180.586
			c0-2.737-2.216-4.956-4.95-4.956c-2.734,0-4.95,2.219-4.95,4.956v61.783c0,2.737,2.216,4.956,4.95,4.956
			c2.734,0,4.95-2.219,4.95-4.956V180.586z"/>
		<path style="fill:none;stroke:#215171;stroke-width:0.5;stroke-miterlimit:10;" d="M336.402,183.617h21.626
			c1.319,0,2.625,0.26,3.844,0.766c1.218,0.505,2.326,1.246,3.258,2.18c0.933,0.934,1.673,2.042,2.178,3.262
			c0.504,1.22,0.764,2.528,0.764,3.849v36.81c0.006,1.451-0.274,2.889-0.824,4.231c-0.55,1.343-1.36,2.563-2.382,3.591
			c-1.023,1.029-2.238,1.845-3.576,2.401c-1.339,0.557-2.774,0.844-4.223,0.844h-20.665V183.81V183.617z"/>
		<path style="fill:none;stroke:#215171;stroke-width:0.5;stroke-miterlimit:10;" d="M368.258,204.309h14.801
			c1.218,0,2.425,0.24,3.55,0.706c1.125,0.467,2.148,1.151,3.009,2.014c0.861,0.862,1.544,1.886,2.01,3.012
			c0.467,1.127,0.707,2.335,0.707,3.554l0,0c0,2.553-1.013,5-2.816,6.805c-1.802,1.805-4.247,2.819-6.796,2.819h-14.417v-19.247
			L368.258,204.309z"/>
		<path style="fill:none;stroke:#215171;stroke-width:0.25;stroke-linecap:round;stroke-miterlimit:10;" d="M348.554,200.313
			l-0.288,22.471"/>
		<path style="fill:none;stroke:#215171;stroke-width:0.25;stroke-linecap:round;stroke-miterlimit:10;" d="M354.85,200.748
			l-0.241,22.471"/>
		<path style="fill:#215171;" d="M468.426,211.636c-25.542-0.237-51.083-0.474-76.625-0.711c0.283,0.581,0.869,1.989,0.659,3.812
			c-0.162,1.406-0.724,2.43-1.069,2.961c25.678,0,51.357,0,77.035,0V211.636z"/>
		<path style="fill:#215171;" d="M81.859,203.669H1.988v6.062h79.871V203.669z"/>
		<path style="fill:#BAC9D3;" d="M100.918,213.497H90.153c-0.75,0.089-1.508,0.089-2.259,0c-0.812-0.101-1.596-0.363-2.307-0.77
			c-1.222-0.65-2.2-1.68-2.787-2.935c-0.521-1.109-0.705-2.347-0.529-3.561c1.585,1.065,3.428,1.68,5.334,1.781
			c1.874,0,2.451-0.529,4.806-0.385c2.355,0.144,2.547,0.673,4.181,0.625c1.539-0.034,3.038-0.501,4.325-1.347V213.497z"/>
		<path style="fill:#BAC9D3;" d="M129.756,227.934h-19.223c-0.901,0.052-1.803-0.079-2.652-0.386
			c-0.849-0.307-1.627-0.782-2.287-1.399c-0.66-0.616-1.189-1.359-1.554-2.186c-0.366-0.826-0.56-1.718-0.571-2.621v-1.636
			c-0.021-0.095-0.021-0.194,0-0.289c0.624-0.962,3.364,0,4.565,0c3.028,0.914,3.316,1.636,4.806,2.069
			c3.686,0.523,7.442-0.152,10.717-1.925c2.017-0.561,4.133-0.676,6.199-0.336c0.093-0.034,0.195-0.034,0.288,0
			c0.021,0.095,0.021,0.193,0,0.288v7.94l-0.384,0.385L129.756,227.934z"/>
		<path style="fill:#215171;" d="M129.566,227.932h0.433v-0.433"/>
		<path style="fill:#BAC9D3;" d="M183,238.182h-40.32c-2.74,0-5.368-1.09-7.306-3.03c-1.938-1.94-3.026-4.572-3.026-7.315v-7.892
			c1.778,0,4.469,0,7.737,0.289c8.218,0.577,9.083,1.684,15.618,2.31c8.183,0.788,16.44,0.17,24.414-1.829
			c1.201-0.289,2.21-0.529,2.883-0.77V238.182z"/>
		<path style="fill:#BAC9D3;" d="M191.315,242.031h-1.49c-1.274,0-2.497-0.507-3.398-1.409c-0.901-0.903-1.407-2.127-1.407-3.403
			V220.33c1.676,0.688,3.474,1.032,5.286,1.01c1.904,0.019,3.789-0.375,5.526-1.154v17.226c0.013,0.602-0.094,1.2-0.315,1.76
			c-0.222,0.56-0.552,1.07-0.973,1.5c-0.421,0.431-0.923,0.772-1.478,1.006C192.512,241.911,191.916,242.031,191.315,242.031z"/>
		<path style="fill:#BAC9D3;" d="M325.161,241.358h-47.048v-13.473c3.577-0.693,7.221-0.967,10.861-0.818
			c11.101,0.529,15.859,4.812,25.278,4.09c3.821-0.338,7.532-1.452,10.909-3.272V241.358z"/>
		<path style="fill:#BAC9D3;" d="M331.59,246.218c-0.48,0-0.955-0.094-1.398-0.278c-0.443-0.184-0.846-0.453-1.185-0.793
			c-0.339-0.339-0.608-0.743-0.791-1.186c-0.184-0.444-0.278-0.919-0.278-1.4v-14.435c1.233,0.678,2.632,0.995,4.036,0.914
			c1.239-0.035,2.454-0.348,3.557-0.914v14.435c0.001,0.506-0.102,1.006-0.303,1.47c-0.202,0.463-0.497,0.88-0.867,1.224
			c-0.37,0.343-0.808,0.606-1.285,0.772C332.599,246.193,332.093,246.258,331.59,246.218z"/>
		<path style="fill:#BAC9D3;" d="M357.067,240.588h-19.223v-13.185c1.575,1.414,3.53,2.334,5.622,2.647
			c3.989,0.529,4.806-2.069,9.612-2.214c4.806-0.144,5.575,1.829,9.611,1.011c1.394-0.282,2.738-0.768,3.989-1.444
			c0.097,1.008,0.097,2.024,0,3.032c0.065,2.621-0.91,5.161-2.712,7.063C362.165,239.401,359.684,240.512,357.067,240.588z"/>
		<path style="fill:#BAC9D3;" d="M382.871,222.159h-13.504v-8.325c2.522-0.313,5.072-0.313,7.593,0c3,0.865,6.106,1.302,9.227,1.3
			c1.683-0.184,3.315-0.69,4.806-1.492c0.038,1.096-0.142,2.19-0.532,3.215c-0.39,1.026-0.98,1.963-1.737,2.756
			c-0.757,0.794-1.665,1.428-2.67,1.865C385.049,221.915,383.967,222.147,382.871,222.159z"/>
	</g>
</g>
</svg>
