<?xml version="1.0" encoding="utf-8"?>
<!-- Generator: Adobe Illustrator 25.4.1, SVG Export Plug-In . SVG Version: 6.00 Build 0)  -->
<svg version="1.1" id="Layer_1" xmlns="http://www.w3.org/2000/svg" xmlns:xlink="http://www.w3.org/1999/xlink" x="0px" y="0px"
	 viewBox="0 0 97.8 85" style="enable-background:new 0 0 97.8 85;" xml:space="preserve">
<g id="Layer_2_00000113332323140316532420000013368240088526420630_">
	<g id="Layer_1-2">
		<g id="Layer_2-2">
			<g id="Layer_1-2-2">
				<path style="fill:#DEE5EA;" d="M80.9,64.4h-66V52.5c2.1,0.3,5.3,0.8,9.3,1.1c9.3,0.8,11.7-0.1,20.6,0c15.1,0.2,20.2,2.7,32,0
					c1.8-0.4,3.2-0.8,4.1-1.1V64.4z"/>
				<path style="fill:none;stroke:#215171;stroke-miterlimit:10;" d="M63.8,18H75c0.8,0,1.4,0.6,1.4,1.4l0,0v15.4
					c0,0.4-0.3,0.7-0.7,0.7l0,0c-0.1,0-0.2,0-0.3-0.1l-6-3.3l-5.8,3.2c-0.4,0.2-0.9,0.1-1.1-0.3c-0.1-0.1-0.1-0.3-0.1-0.4V19.4
					C62.3,18.6,62.9,18,63.8,18L63.8,18z"/>
				<path style="fill:#215171;" d="M69,22.7l-0.8,1.4c-0.1,0.1-0.2,0.2-0.3,0.2l-1.5,0.3c-0.2,0-0.4,0.3-0.3,0.5
					c0,0.1,0.1,0.1,0.1,0.2l1.1,1.2c0.1,0.1,0.1,0.2,0.1,0.3l-0.2,1.6c0,0.2,0.1,0.4,0.4,0.4c0.1,0,0.1,0,0.2,0l1.5-0.7
					c0.1-0.1,0.2-0.1,0.3,0l1.5,0.7c0.2,0.1,0.4,0,0.5-0.2l0,0c0-0.1,0-0.1,0-0.2l-0.2-1.5c0-0.1,0-0.2,0.1-0.3l1.1-1.3
					c0.2-0.2,0.2-0.4,0-0.6c0,0-0.1-0.1-0.2-0.1l-1.7-0.4c-0.1,0-0.2-0.1-0.3-0.2l-0.8-1.3C69.5,22.5,69.3,22.5,69,22.7
					C69.1,22.6,69.1,22.6,69,22.7C69,22.6,69,22.6,69,22.7z"/>
				<path style="fill:none;stroke:#215171;stroke-miterlimit:10;" d="M42.8,20.8v-2.4c0-1.1-0.9-2-2-2H16.2c-0.8,0-1.4,0.6-1.4,1.4
					l0,0v4.5"/>
				<path style="fill:none;stroke:#215171;stroke-miterlimit:10;" d="M52.8,64.4h26.5c0.8,0,1.4-0.6,1.4-1.4V22.1
					c0-0.8-0.6-1.4-1.4-1.4c0,0-1.2,0-3.1,0"/>
				<path style="fill:none;stroke:#215171;stroke-miterlimit:10;" d="M62.6,20.8c-19.1,0-47.7,0-47.7,0V63c0,0.8,0.6,1.4,1.4,1.4
					h36.6"/>
			</g>
		</g>
		<ellipse style="fill:#BAC9D3;" cx="48.2" cy="81.5" rx="23.5" ry="3.5"/>
		<path style="fill:#215171;" d="M2.5,17.5L2.5,17.5c0.2,0,0.3,0.1,0.3,0.2v4.6c0,0.1-0.1,0.2-0.2,0.2H2.5c-0.1,0-0.2-0.1-0.2-0.2
			v-4.6C2.3,17.5,2.3,17.5,2.5,17.5z"/>
		<path style="fill:#215171;" d="M5,19.9L5,19.9c0,0.2-0.1,0.3-0.2,0.3H0.2C0.1,20.2,0,20.1,0,20v-0.1c0-0.1,0.1-0.2,0.2-0.2h4.6
			C4.9,19.7,5,19.8,5,19.9z"/>
		<path style="fill:#215171;" d="M94.7,24.8h0.2c0.1,0,0.2,0.1,0.2,0.2v5.6c0,0.1-0.1,0.2-0.2,0.2h-0.2c-0.1,0-0.2-0.1-0.2-0.2V25
			C94.5,24.9,94.6,24.8,94.7,24.8z"/>
		<path style="fill:#215171;" d="M97.8,27.7v0.2c0,0.1-0.1,0.2-0.2,0.2H92c-0.1,0-0.2-0.1-0.2-0.2v-0.2c0-0.1,0.1-0.2,0.2-0.2h5.7
			C97.7,27.5,97.8,27.6,97.8,27.7z"/>
	</g>
</g>
<path style="fill:#215171;" d="M63.4-0.1L63.4-0.1c0.2,0,0.4,0.2,0.4,0.4v7c0,0.2-0.2,0.4-0.4,0.4l0,0c-0.2,0-0.4-0.2-0.4-0.4v-7
	C63,0.1,63.2-0.1,63.4-0.1z"/>
<path style="fill:#215171;" d="M67.2,3.8L67.2,3.8c0,0.2-0.2,0.4-0.4,0.4h-7c-0.2,0-0.4-0.2-0.4-0.4l0,0c0-0.2,0.2-0.4,0.4-0.4h7
	C67.1,3.4,67.2,3.6,67.2,3.8z"/>
<path style="fill:#215171;" d="M27.8,3c0-0.1,0.1-0.1,0.1-0.1h2.5c0.1,0,0.1,0.1,0.1,0.1v0.1c0,0.1-0.1,0.1-0.1,0.1h-2.5
	C27.8,3.2,27.8,3.1,27.8,3"/>
<path style="fill:#215171;" d="M29.1,4.4c-0.1,0-0.1-0.1-0.1-0.1V1.8c0-0.1,0.1-0.1,0.1-0.1h0.1c0.1,0,0.1,0.1,0.1,0.1v2.5
	C29.3,4.4,29.2,4.4,29.1,4.4"/>
<path style="fill:#215171;" d="M45.8,11.6c0-0.1,0.1-0.1,0.1-0.1h2.5c0.1,0,0.1,0.1,0.1,0.1v0.1c0,0.1-0.1,0.1-0.1,0.1h-2.5
	C45.9,11.8,45.8,11.7,45.8,11.6"/>
<path style="fill:#215171;" d="M47.2,13C47.1,13,47,13,47,12.9v-2.5c0-0.1,0.1-0.1,0.1-0.1h0.1c0.1,0,0.1,0.1,0.1,0.1v2.5
	C47.3,13,47.3,13,47.2,13"/>
<path style="fill:#215171;" d="M80.2,11.5c0-0.1,0.1-0.1,0.1-0.1h2.5c0.1,0,0.1,0.1,0.1,0.1v0.1c0,0.1-0.1,0.1-0.1,0.1h-2.5
	C80.3,11.7,80.2,11.6,80.2,11.5"/>
<path style="fill:#215171;" d="M81.6,12.9c-0.1,0-0.1-0.1-0.1-0.1v-2.5c0-0.1,0.1-0.1,0.1-0.1h0.1c0.1,0,0.1,0.1,0.1,0.1v2.5
	C81.7,12.9,81.7,12.9,81.6,12.9"/>
</svg>
