<?xml version="1.0" encoding="utf-8"?>
<!-- Generator: Adobe Illustrator 25.4.1, SVG Export Plug-In . SVG Version: 6.00 Build 0)  -->
<svg version="1.1" id="Layer_1" xmlns="http://www.w3.org/2000/svg" xmlns:xlink="http://www.w3.org/1999/xlink" x="0px" y="0px"
	 viewBox="0 0 97.8 98.2" style="enable-background:new 0 0 97.8 98.2;" xml:space="preserve">
<g id="Layer_2_00000018942195405387867520000004191553102431565202_">
	<g id="Layer_1-2">
		<g id="Layer_2-2">
			<g id="Layer_1-2-2">
				<ellipse style="fill:#DEE5EA;" cx="48.3" cy="94.7" rx="23.5" ry="3.5"/>
				<path style="fill:#215171;" d="M63.6,0L63.6,0C63.8,0,64,0.1,64,0.3l0,0v7c0,0.2-0.2,0.4-0.4,0.4l0,0c-0.2,0-0.4-0.2-0.4-0.4v-7
					C63.3,0.2,63.4,0,63.6,0z"/>
				<path style="fill:#215171;" d="M67.4,3.9L67.4,3.9c0,0.2-0.2,0.4-0.4,0.4l0,0h-7c-0.2,0-0.4-0.2-0.4-0.4l0,0
					c0-0.2,0.2-0.4,0.4-0.4h7C67.3,3.5,67.4,3.7,67.4,3.9L67.4,3.9z"/>
				<path style="fill:#215171;" d="M2.5,17.5L2.5,17.5c0.2,0,0.3,0.1,0.3,0.2v4.6c0,0.1-0.1,0.2-0.2,0.2H2.5c-0.1,0-0.2-0.1-0.2-0.2
					v-4.6C2.3,17.5,2.3,17.5,2.5,17.5z"/>
				<path style="fill:#215171;" d="M0.2,19.7h4.6c0.1,0,0.2,0.1,0.2,0.2V20c0,0.1-0.1,0.2-0.2,0.2H0.2C0.1,20.2,0,20.1,0,20v-0.1
					C0,19.8,0.1,19.7,0.2,19.7z"/>
				<path style="fill:#215171;" d="M94.7,24.8h0.2c0.1,0,0.2,0.1,0.2,0.2v5.6c0,0.1-0.1,0.2-0.2,0.2h-0.2c-0.1,0-0.2-0.1-0.2-0.2V25
					C94.5,24.9,94.6,24.8,94.7,24.8z"/>
				<path style="fill:#215171;" d="M92,27.5h5.7c0.1,0,0.2,0.1,0.2,0.2v0.2c0,0.1-0.1,0.2-0.2,0.2H92"/>
			</g>
		</g>
	</g>
</g>
<ellipse style="fill:none;stroke:#215171;stroke-miterlimit:10;" cx="41.8" cy="42.6" rx="23" ry="23.1"/>
<circle style="fill:none;stroke:#215171;stroke-miterlimit:10;" cx="42" cy="42.6" r="20.1"/>
<path style="fill:#DEE5EA;stroke:#215171;stroke-miterlimit:10;" d="M57.3,60.1l5.9,5.9l2.3-2.3l-5.8-5.8
	C59.7,57.8,57.1,60.1,57.3,60.1z"/>
<path style="fill:none;stroke:#215171;stroke-miterlimit:10;" d="M63,67.5l12.4,12.4c0.8,0.8,2.1,0.8,2.9,0l0.8-0.8
	c0.8-0.8,0.8-2.1,0-2.9L66.8,63.8c-0.4-0.4-1-0.4-1.5,0c-0.7,0.6-1.7,1.6-2.3,2.3C62.6,66.5,62.6,67.1,63,67.5z"/>
<path style="fill:#DEE5EA;" d="M64,66l1.8-1.8c0.2-0.2,0.6-0.2,0.9,0l0,0l12.1,12.1c0.6,0.6,0.6,1.7,0,2.3l0,0l-1,1l0,0L64,66L64,66
	z"/>
<circle style="fill:#DEE5EA;" cx="43.2" cy="43.1" r="18.4"/>
<path style="fill:#215171;" d="M80.8,10.6v2.1c0,0.1-0.1,0.1-0.1,0.1l0,0c-0.1,0-0.1-0.1-0.1-0.1v-2.1"/>
<path style="fill:#215171;" d="M81.8,11.7L81.8,11.7c0,0.1-0.1,0.1-0.1,0.1l0,0h-2.1c-0.1,0-0.1-0.1-0.1-0.1l0,0
	c0-0.1,0.1-0.1,0.1-0.1h2.1C81.8,11.6,81.8,11.6,81.8,11.7L81.8,11.7z"/>
<path style="fill:#215171;" d="M48,10.6v2.1c0,0.1-0.1,0.1-0.1,0.1l0,0c-0.1,0-0.1-0.1-0.1-0.1v-2.1"/>
<path style="fill:#215171;" d="M49.1,11.7L49.1,11.7c0,0.1-0.1,0.1-0.1,0.1l0,0h-2.1c-0.1,0-0.1-0.1-0.1-0.1l0,0
	c0-0.1,0.1-0.1,0.1-0.1H49C49.1,11.6,49.1,11.7,49.1,11.7L49.1,11.7z"/>
<path style="fill:#215171;" d="M21.8,3.1v2.1c0,0.1-0.1,0.1-0.1,0.1l0,0c-0.1,0-0.1-0.1-0.1-0.1V3.1"/>
<path style="fill:#215171;" d="M22.9,4.2L22.9,4.2c0,0.1-0.1,0.1-0.1,0.1l0,0h-2.1c-0.1,0-0.1-0.1-0.1-0.1l0,0
	c0-0.1,0.1-0.1,0.1-0.1h2.1C22.9,4.1,22.9,4.1,22.9,4.2L22.9,4.2z"/>
</svg>
