<?xml version="1.0" encoding="utf-8"?>
<!-- Generator: Adobe Illustrator 26.0.1, SVG Export Plug-In . SVG Version: 6.00 Build 0)  -->
<svg version="1.1" id="Layer_1" xmlns="http://www.w3.org/2000/svg" xmlns:xlink="http://www.w3.org/1999/xlink" x="0px" y="0px"
	 viewBox="0 0 300 300" style="enable-background:new 0 0 300 300;" xml:space="preserve">
<g id="Layer_2_00000113332323140316532420000013368240088526420630_">
	<g id="Layer_1-2">
		<ellipse style="fill:#BAC9D3;" cx="148.516" cy="260.823" rx="67.358" ry="10.032"/>
		<path style="fill:#215171;" d="M193.053,26L193.053,26c0.573,0,1.147,0.573,1.147,1.147v20.064c0,0.573-0.573,1.147-1.147,1.147
			l0,0c-0.573,0-1.147-0.573-1.147-1.147V27.147C191.907,26.573,192.48,26,193.053,26z"/>
		<path style="fill:#215171;" d="M203.945,37.179L203.945,37.179c0,0.573-0.573,1.147-1.147,1.147h-20.064
			c-0.573,0-1.147-0.573-1.147-1.147l0,0c0-0.573,0.573-1.147,1.147-1.147h20.064C203.659,36.032,203.945,36.605,203.945,37.179z"/>
		<path style="fill:#215171;" d="M17.922,76.16L17.922,76.16c0.573,0,0.86,0.287,0.86,0.573v13.185c0,0.287-0.287,0.573-0.573,0.573
			h-0.287c-0.287,0-0.573-0.287-0.573-0.573V76.734C17.349,76.16,17.349,76.16,17.922,76.16z"/>
		<path style="fill:#215171;" d="M25.088,83.039L25.088,83.039c0,0.573-0.287,0.86-0.573,0.86H11.33
			c-0.287,0-0.573-0.287-0.573-0.573v-0.287c0-0.287,0.287-0.573,0.573-0.573h13.185C24.801,82.466,25.088,82.753,25.088,83.039z"/>
		<path style="fill:#215171;" d="M282.195,97.084h0.573c0.287,0,0.573,0.287,0.573,0.573v16.051c0,0.287-0.287,0.573-0.573,0.573
			h-0.573c-0.287,0-0.573-0.287-0.573-0.573V97.658C281.622,97.371,281.909,97.084,282.195,97.084z"/>
		<path style="fill:#215171;" d="M291.081,105.397v0.573c0,0.287-0.287,0.573-0.573,0.573h-16.051c-0.287,0-0.573-0.287-0.573-0.573
			v-0.573c0-0.287,0.287-0.573,0.573-0.573h16.338C290.794,104.823,291.081,105.11,291.081,105.397z"/>
	</g>
</g>
<path style="fill:#215171;" d="M91.013,34.886c0-0.287,0-0.287,0.287-0.287h7.166c0.287,0,0.287,0.287,0.287,0.287v0.287
	c0,0.287-0.287,0.287-0.287,0.287H91.3C91.013,35.459,91.013,35.172,91.013,34.886"/>
<path style="fill:#215171;" d="M94.739,38.898c-0.287,0-0.287-0.287-0.287-0.287v-7.166c0-0.287,0.287-0.287,0.287-0.287h0.287
	c0.287,0,0.287,0.287,0.287,0.287v7.166C95.312,38.898,95.026,38.898,94.739,38.898"/>
<path style="fill:#215171;" d="M142.606,59.536c0-0.287,0.287-0.287,0.287-0.287h7.166c0.287,0,0.287,0.287,0.287,0.287v0.287
	c0,0.287-0.287,0.287-0.287,0.287h-7.166C142.893,60.109,142.606,59.822,142.606,59.536"/>
<path style="fill:#215171;" d="M146.333,63.549c-0.287,0-0.287-0.287-0.287-0.287v-7.166c0-0.287,0.287-0.287,0.287-0.287h0.287
	c0.287,0,0.287,0.287,0.287,0.287v7.166C146.906,63.262,146.906,63.549,146.333,63.549"/>
<path style="fill:#215171;" d="M241.207,59.249c0-0.287,0.287-0.287,0.287-0.287h7.166c0.287,0,0.287,0.287,0.287,0.287v0.287
	c0,0.287-0.287,0.287-0.287,0.287h-7.166C241.494,59.536,241.207,59.536,241.207,59.249"/>
<path style="fill:#215171;" d="M245.22,63.262c-0.287,0-0.287-0.287-0.287-0.287V55.81c0-0.287,0.287-0.287,0.287-0.287h0.287
	c0.287,0,0.287,0.287,0.287,0.287v7.166C245.507,62.975,245.507,63.262,245.22,63.262"/>
<g id="_502_progress_outline">
	<path style="fill:#093F68;" d="M241.537,214.884H61.086c-3.354-0.005-6.071-2.723-6.077-6.077V99.89
		c0-4.581,3.713-8.294,8.294-8.294h175.843c4.677,0,8.468,3.791,8.468,8.468v108.743
		C247.608,212.161,244.891,214.878,241.537,214.884z M56.95,100.87v107.937c0,2.284,1.851,4.135,4.135,4.135h180.452
		c2.282-0.005,4.13-1.854,4.135-4.135V101.036c0-4.141-3.357-7.498-7.498-7.498L64.273,93.547
		C60.229,93.547,56.95,96.826,56.95,100.87z"/>
	<path style="fill:#BAC9D3;" d="M101.845,104.002H71.618c-0.536,0-0.971-0.435-0.971-0.971c0-0.536,0.435-0.971,0.971-0.971h30.227
		c0.536,0,0.971,0.435,0.971,0.971C102.816,103.567,102.381,104.002,101.845,104.002z"/>
	<path style="fill:#BAC9D3;" d="M126.386,104.003h-18.56c-0.536,0-0.971-0.435-0.971-0.971c0-0.536,0.435-0.971,0.971-0.971h18.56
		c0.536,0,0.971,0.435,0.971,0.971C127.356,103.568,126.922,104.003,126.386,104.003L126.386,104.003z"/>
	<path style="fill:#BAC9D3;" d="M138.053,104.003h-6.29c-0.536,0-0.971-0.435-0.971-0.971c0-0.536,0.435-0.971,0.971-0.971h6.329
		c0.536,0,0.971,0.435,0.971,0.971c0,0.536-0.435,0.971-0.971,0.971H138.053z"/>
</g>
<path style="fill:#BAC9D3;" d="M95.192,111.05H72.006c-0.429,0-0.777-0.348-0.777-0.777s0.348-0.777,0.777-0.777h23.187
	c0.429,0,0.777,0.348,0.777,0.777S95.621,111.05,95.192,111.05z"/>
<path style="fill:#BAC9D3;" d="M86.856,119.097H72.006c-0.429,0-0.777-0.348-0.777-0.777s0.348-0.777,0.777-0.777h14.851
	c0.429,0,0.777,0.348,0.777,0.777S87.285,119.097,86.856,119.097L86.856,119.097z"/>
<path style="fill:#BAC9D3;" d="M95.192,119.097h-4.033c-0.429,0-0.777-0.348-0.777-0.777s0.348-0.777,0.777-0.777h4.064
	c0.429,0,0.777,0.348,0.777,0.777s-0.348,0.777-0.777,0.777H95.192z"/>
<path style="fill:#BAC9D3;" d="M79.431,128.681h-7.425c-0.429,0-0.777-0.348-0.777-0.777c0-0.429,0.348-0.777,0.777-0.777h7.425
	c0.429,0,0.777,0.348,0.777,0.777C80.208,128.334,79.86,128.681,79.431,128.681z"/>
<path style="fill:#BAC9D3;" d="M237.04,196.005H199.96c-0.53,0-0.96-0.43-0.96-0.96s0.43-0.96,0.96-0.96h37.079
	c0.53,0,0.96,0.43,0.96,0.96S237.57,196.005,237.04,196.005z"/>
<path style="fill:#BAC9D3;" d="M237.04,205.724h-16.941c-0.53,0-0.96-0.43-0.96-0.96s0.43-0.96,0.96-0.96h16.941
	c0.53,0,0.96,0.43,0.96,0.96S237.57,205.724,237.04,205.724z"/>
<path style="fill:#BAC9D3;" d="M208.719,205.724h-8.758c-0.53,0-0.96-0.43-0.96-0.96s0.43-0.96,0.96-0.96h8.758
	c0.53,0,0.96,0.43,0.96,0.96S209.249,205.724,208.719,205.724z"/>
<line style="fill:none;stroke:#FFFFFF;stroke-width:3;stroke-miterlimit:10;" x1="179.55" y1="177.09" x2="179.06" y2="176.71"/>
<line style="fill:none;stroke:#FFFFFF;stroke-width:3;stroke-miterlimit:10;" x1="121.43" y1="131.67" x2="120.45" y2="130.91"/>
<line style="fill:none;stroke:#FFFFFF;stroke-width:3;stroke-miterlimit:10;" x1="150" y1="154" x2="150" y2="140.38"/>
<path style="fill:none;stroke:#FFFFFF;stroke-width:3;stroke-miterlimit:10;" d="M150,169.62"/>
<line style="fill:none;stroke:#FFFFFF;stroke-width:3;stroke-miterlimit:10;" x1="150" y1="117.93" x2="150" y2="116.5"/>
<line style="fill:none;stroke:#FFFFFF;stroke-width:3;stroke-miterlimit:10;" x1="150" y1="191.5" x2="150" y2="191.07"/>
<g>
	<path style="fill:#215171;" d="M103.796,149.53c0-1.411,0.27-2.734,0.81-3.966c0.54-1.231,1.288-2.311,2.242-3.239
		c0.955-0.927,2.069-1.654,3.343-2.181c1.274-0.526,2.659-0.789,4.154-0.789c1.578,0,3.025,0.291,4.34,0.872
		c1.314,0.581,2.443,1.419,3.385,2.513c0.941,1.094,1.667,2.422,2.181,3.986c0.512,1.565,0.768,3.343,0.768,5.337
		c0,2.907-0.264,5.448-0.789,7.621c-0.527,2.174-1.274,3.987-2.242,5.441c-0.969,1.453-2.133,2.54-3.489,3.259
		c-1.357,0.72-2.866,1.081-4.527,1.081c-1.911,0-3.648-0.457-5.212-1.371s-2.789-2.201-3.676-3.863l2.243-2.201
		c0.609,1.301,1.508,2.332,2.699,3.094c1.19,0.76,2.519,1.141,3.987,1.141c2.27,0,4.083-1.011,5.441-3.032
		c1.356-2.02,2.062-4.859,2.118-8.513c-0.61,1.44-1.592,2.589-2.949,3.446c-1.357,0.859-2.907,1.288-4.651,1.288
		c-1.412,0-2.741-0.256-3.987-0.768c-1.246-0.513-2.325-1.211-3.239-2.098c-0.914-0.886-1.635-1.937-2.16-3.156
		C104.059,152.216,103.796,150.915,103.796,149.53z M114.304,142.512c-0.969,0-1.876,0.187-2.72,0.56
		c-0.845,0.374-1.585,0.879-2.222,1.516c-0.638,0.637-1.142,1.377-1.516,2.222c-0.373,0.844-0.56,1.751-0.56,2.72
		c0,0.969,0.187,1.876,0.56,2.72c0.374,0.845,0.879,1.578,1.516,2.202c0.637,0.623,1.377,1.121,2.222,1.495
		c0.844,0.373,1.751,0.56,2.72,0.56c0.969,0,1.875-0.187,2.72-0.56c0.844-0.374,1.585-0.872,2.222-1.495
		c0.637-0.624,1.142-1.357,1.516-2.202c0.373-0.844,0.56-1.751,0.56-2.72c0-0.94-0.187-1.841-0.56-2.699
		c-0.374-0.857-0.879-1.605-1.516-2.242c-0.637-0.637-1.385-1.142-2.242-1.516C116.144,142.699,115.244,142.512,114.304,142.512z"/>
	<path style="fill:#215171;" d="M138.433,150.028c1.356,0,2.622,0.228,3.8,0.685c1.177,0.457,2.194,1.101,3.052,1.932
		c0.858,0.83,1.537,1.827,2.035,2.989c0.498,1.163,0.748,2.437,0.748,3.821c0,1.468-0.27,2.803-0.81,4.007
		c-0.54,1.205-1.281,2.236-2.222,3.094c-0.942,0.857-2.049,1.523-3.323,1.994c-1.274,0.47-2.63,0.706-4.07,0.706
		c-2.104,0-4.001-0.498-5.69-1.495c-1.689-0.997-2.963-2.325-3.82-3.987l2.284-1.994c0.775,1.275,1.807,2.298,3.094,3.074
		c1.287,0.774,2.679,1.163,4.173,1.163c0.941,0,1.821-0.16,2.637-0.478c0.817-0.318,1.523-0.761,2.118-1.328
		c0.595-0.568,1.059-1.253,1.392-2.056c0.332-0.803,0.498-1.688,0.498-2.658c0-0.914-0.166-1.758-0.498-2.533
		c-0.333-0.774-0.783-1.44-1.35-1.994c-0.567-0.553-1.239-0.983-2.014-1.287c-0.775-0.304-1.606-0.457-2.492-0.457
		c-1.191,0-2.305,0.263-3.343,0.789c-1.038,0.527-1.889,1.274-2.555,2.243h-3.281c0.027-0.138,0.097-0.491,0.207-1.059
		c0.11-0.567,0.25-1.26,0.415-2.076c0.167-0.816,0.346-1.724,0.54-2.72s0.387-2.007,0.581-3.032
		c0.471-2.381,0.997-5.053,1.579-8.016h14.328v3.364H134.82l-1.786,9.386c0.609-0.636,1.371-1.141,2.285-1.515
		C136.232,150.215,137.27,150.028,138.433,150.028z"/>
	<path style="fill:#215171;" d="M164.389,153.268c1.772,0.305,3.177,1.121,4.216,2.45c1.038,1.328,1.558,2.976,1.558,4.942
		c0,1.274-0.236,2.436-0.707,3.489c-0.471,1.052-1.142,1.952-2.014,2.699c-0.872,0.748-1.918,1.322-3.136,1.724
		c-1.219,0.401-2.575,0.602-4.07,0.602c-2.105,0-3.953-0.394-5.544-1.184c-1.593-0.789-2.832-1.904-3.717-3.343l2.45-2.45
		c0.636,1.135,1.495,2.028,2.575,2.679c1.08,0.65,2.492,0.976,4.236,0.976c1.911,0,3.412-0.43,4.506-1.287
		c1.094-0.858,1.641-2.159,1.641-3.904c0-1.744-0.588-3.135-1.765-4.173s-2.886-1.558-5.129-1.558h-1.081v-3.073h1.163
		c1.994,0,3.523-0.477,4.589-1.433s1.599-2.166,1.599-3.634c0-1.467-0.513-2.561-1.537-3.281c-1.025-0.72-2.312-1.081-3.863-1.081
		c-1.523,0-2.859,0.326-4.007,0.977c-1.149,0.651-2.042,1.557-2.679,2.72l-2.242-2.326c0.359-0.692,0.851-1.321,1.474-1.889
		c0.623-0.567,1.343-1.059,2.159-1.474c0.817-0.415,1.703-0.734,2.659-0.955c0.954-0.221,1.958-0.333,3.011-0.333
		c1.301,0,2.498,0.181,3.593,0.54c1.093,0.36,2.035,0.858,2.824,1.495c0.789,0.637,1.398,1.412,1.828,2.326
		c0.429,0.913,0.643,1.925,0.643,3.032c0,0.83-0.117,1.62-0.353,2.367c-0.236,0.748-0.581,1.426-1.038,2.035
		c-0.457,0.61-1.011,1.115-1.661,1.516C165.918,152.86,165.191,153.13,164.389,153.268z"/>
	<path style="fill:#215171;" d="M188.228,142.221h-15.16v-3.364H194l-14.826,29.487h-4.153L188.228,142.221z"/>
</g>
</svg>
