<?xml version="1.0" encoding="utf-8"?>
<!-- Generator: Adobe Illustrator 26.0.1, SVG Export Plug-In . SVG Version: 6.00 Build 0)  -->
<svg version="1.1" id="Layer_1" xmlns="http://www.w3.org/2000/svg" xmlns:xlink="http://www.w3.org/1999/xlink" x="0px" y="0px"
	 viewBox="0 0 300 300" style="enable-background:new 0 0 300 300;" xml:space="preserve">
<g id="Layer_2_00000113332323140316532420000013368240088526420630_">
	<g id="Layer_1-2">
		<ellipse style="fill:#BAC9D3;" cx="148.516" cy="260.823" rx="67.358" ry="10.032"/>
		<path style="fill:#215171;" d="M193.053,26L193.053,26c0.573,0,1.147,0.573,1.147,1.147v20.064c0,0.573-0.573,1.147-1.147,1.147
			l0,0c-0.573,0-1.147-0.573-1.147-1.147V27.147C191.907,26.573,192.48,26,193.053,26z"/>
		<path style="fill:#215171;" d="M203.945,37.179L203.945,37.179c0,0.573-0.573,1.147-1.147,1.147h-20.064
			c-0.573,0-1.147-0.573-1.147-1.147l0,0c0-0.573,0.573-1.147,1.147-1.147h20.064C203.659,36.032,203.945,36.605,203.945,37.179z"/>
		<path style="fill:#215171;" d="M17.922,76.16L17.922,76.16c0.573,0,0.86,0.287,0.86,0.573v13.185c0,0.287-0.287,0.573-0.573,0.573
			h-0.287c-0.287,0-0.573-0.287-0.573-0.573V76.734C17.349,76.16,17.349,76.16,17.922,76.16z"/>
		<path style="fill:#215171;" d="M25.088,83.039L25.088,83.039c0,0.573-0.287,0.86-0.573,0.86H11.33
			c-0.287,0-0.573-0.287-0.573-0.573v-0.287c0-0.287,0.287-0.573,0.573-0.573h13.185C24.801,82.466,25.088,82.753,25.088,83.039z"/>
		<path style="fill:#215171;" d="M282.195,97.084h0.573c0.287,0,0.573,0.287,0.573,0.573v16.051c0,0.287-0.287,0.573-0.573,0.573
			h-0.573c-0.287,0-0.573-0.287-0.573-0.573V97.658C281.622,97.371,281.909,97.084,282.195,97.084z"/>
		<path style="fill:#215171;" d="M291.081,105.397v0.573c0,0.287-0.287,0.573-0.573,0.573h-16.051c-0.287,0-0.573-0.287-0.573-0.573
			v-0.573c0-0.287,0.287-0.573,0.573-0.573h16.338C290.794,104.823,291.081,105.11,291.081,105.397z"/>
	</g>
</g>
<path style="fill:#215171;" d="M91.013,34.886c0-0.287,0-0.287,0.287-0.287h7.166c0.287,0,0.287,0.287,0.287,0.287v0.287
	c0,0.287-0.287,0.287-0.287,0.287H91.3C91.013,35.459,91.013,35.172,91.013,34.886"/>
<path style="fill:#215171;" d="M94.739,38.898c-0.287,0-0.287-0.287-0.287-0.287v-7.166c0-0.287,0.287-0.287,0.287-0.287h0.287
	c0.287,0,0.287,0.287,0.287,0.287v7.166C95.312,38.898,95.026,38.898,94.739,38.898"/>
<path style="fill:#215171;" d="M142.606,59.536c0-0.287,0.287-0.287,0.287-0.287h7.166c0.287,0,0.287,0.287,0.287,0.287v0.287
	c0,0.287-0.287,0.287-0.287,0.287h-7.166C142.893,60.109,142.606,59.822,142.606,59.536"/>
<path style="fill:#215171;" d="M146.333,63.549c-0.287,0-0.287-0.287-0.287-0.287v-7.166c0-0.287,0.287-0.287,0.287-0.287h0.287
	c0.287,0,0.287,0.287,0.287,0.287v7.166C146.906,63.262,146.906,63.549,146.333,63.549"/>
<path style="fill:#215171;" d="M241.207,59.249c0-0.287,0.287-0.287,0.287-0.287h7.166c0.287,0,0.287,0.287,0.287,0.287v0.287
	c0,0.287-0.287,0.287-0.287,0.287h-7.166C241.494,59.536,241.207,59.536,241.207,59.249"/>
<path style="fill:#215171;" d="M245.22,63.262c-0.287,0-0.287-0.287-0.287-0.287V55.81c0-0.287,0.287-0.287,0.287-0.287h0.287
	c0.287,0,0.287,0.287,0.287,0.287v7.166C245.507,62.975,245.507,63.262,245.22,63.262"/>
<g id="_502_progress_outline">
	<path style="fill:#093F68;" d="M241.537,214.884H61.086c-3.354-0.005-6.071-2.723-6.077-6.077V99.89
		c0-4.581,3.713-8.294,8.294-8.294h175.843c4.677,0,8.468,3.791,8.468,8.468v108.743
		C247.608,212.161,244.891,214.878,241.537,214.884z M56.95,100.87v107.937c0,2.284,1.851,4.135,4.135,4.135h180.452
		c2.282-0.005,4.13-1.854,4.135-4.135V101.036c0-4.141-3.357-7.498-7.498-7.498L64.273,93.547
		C60.229,93.547,56.95,96.826,56.95,100.87z"/>
	<path style="fill:#BAC9D3;" d="M101.845,104.002H71.618c-0.536,0-0.971-0.435-0.971-0.971c0-0.536,0.435-0.971,0.971-0.971h30.227
		c0.536,0,0.971,0.435,0.971,0.971C102.816,103.567,102.381,104.002,101.845,104.002z"/>
	<path style="fill:#BAC9D3;" d="M126.386,104.003h-18.56c-0.536,0-0.971-0.435-0.971-0.971c0-0.536,0.435-0.971,0.971-0.971h18.56
		c0.536,0,0.971,0.435,0.971,0.971C127.356,103.568,126.922,104.003,126.386,104.003L126.386,104.003z"/>
	<path style="fill:#BAC9D3;" d="M138.053,104.003h-6.29c-0.536,0-0.971-0.435-0.971-0.971c0-0.536,0.435-0.971,0.971-0.971h6.329
		c0.536,0,0.971,0.435,0.971,0.971c0,0.536-0.435,0.971-0.971,0.971H138.053z"/>
</g>
<path style="fill:#BAC9D3;" d="M95.192,111.05H72.006c-0.429,0-0.777-0.348-0.777-0.777s0.348-0.777,0.777-0.777h23.187
	c0.429,0,0.777,0.348,0.777,0.777S95.621,111.05,95.192,111.05z"/>
<path style="fill:#BAC9D3;" d="M86.856,119.097H72.006c-0.429,0-0.777-0.348-0.777-0.777s0.348-0.777,0.777-0.777h14.851
	c0.429,0,0.777,0.348,0.777,0.777S87.285,119.097,86.856,119.097L86.856,119.097z"/>
<path style="fill:#BAC9D3;" d="M95.192,119.097h-4.033c-0.429,0-0.777-0.348-0.777-0.777s0.348-0.777,0.777-0.777h4.064
	c0.429,0,0.777,0.348,0.777,0.777s-0.348,0.777-0.777,0.777H95.192z"/>
<path style="fill:#BAC9D3;" d="M79.431,128.681h-7.425c-0.429,0-0.777-0.348-0.777-0.777c0-0.429,0.348-0.777,0.777-0.777h7.425
	c0.429,0,0.777,0.348,0.777,0.777C80.208,128.334,79.86,128.681,79.431,128.681z"/>
<path style="fill:#BAC9D3;" d="M237.04,196.005H199.96c-0.53,0-0.96-0.43-0.96-0.96s0.43-0.96,0.96-0.96h37.079
	c0.53,0,0.96,0.43,0.96,0.96S237.57,196.005,237.04,196.005z"/>
<path style="fill:#BAC9D3;" d="M237.04,205.724h-16.941c-0.53,0-0.96-0.43-0.96-0.96s0.43-0.96,0.96-0.96h16.941
	c0.53,0,0.96,0.43,0.96,0.96S237.57,205.724,237.04,205.724z"/>
<path style="fill:#BAC9D3;" d="M208.719,205.724h-8.758c-0.53,0-0.96-0.43-0.96-0.96s0.43-0.96,0.96-0.96h8.758
	c0.53,0,0.96,0.43,0.96,0.96S209.249,205.724,208.719,205.724z"/>
<path style="fill:#90A8B8;" d="M173.667,131.164l-14.822,12.034c-3.172-3.586-7.75-5.88-12.879-6.016l0.099-19.25l-1-0.005l0-0.05
	c0.19-0.009,0.39-0.008,0.59-0.007C156.945,117.928,167.009,123.089,173.667,131.164z"/>
<path style="fill:#64859C;" d="M182.16,154.51c0,20.06-16.15,36.35-36.16,36.57v-18.09c9.68-0.21,17.47-8.14,17.47-17.87
	c0-4.24-1.48-8.14-3.95-11.2l14.75-12.1C179.21,138.06,182.16,145.94,182.16,154.51z"/>
<path style="fill:#215171;" d="M145,172.99v18.08c-10.93-0.17-20.69-5.13-27.27-12.88l14.15-11.6
	C135.04,170.37,139.73,172.82,145,172.99z"/>
<path style="fill:#17394F;" d="M145,117.95v19.3c-9.61,0.31-17.29,8.19-17.29,17.87c0,4.03,1.33,7.74,3.58,10.73l-14.16,11.62
	c-5.08-6.28-8.11-14.26-8.11-22.96C109.02,134.51,125.07,118.26,145,117.95z"/>
<path style="fill:#215171;" d="M159.52,143.92c2.47,3.06,3.95,6.96,3.95,11.2c0,9.73-7.79,17.66-17.47,17.87v18.09h-0.41
	c-0.2,0-0.4,0-0.59-0.01v-18.08c-5.27-0.17-9.96-2.62-13.12-6.4l-14.15,11.6c-0.21-0.23-0.41-0.47-0.6-0.72l14.16-11.62
	c-2.25-2.99-3.58-6.7-3.58-10.73c0-9.68,7.68-17.56,17.29-17.87V118h1v19.25c5.13,0.11,9.72,2.38,12.91,5.95l14.76-12.11
	c0.21,0.24,0.41,0.48,0.6,0.73L159.52,143.92z"/>
<path style="fill:#FFFFFF;" d="M163.47,155.12c0,9.73-7.79,17.66-17.47,17.87c-0.14,0.01-0.27,0.01-0.41,0.01
	c-0.2,0-0.4,0-0.59-0.01c-5.27-0.17-9.96-2.62-13.12-6.4c-0.21-0.24-0.4-0.49-0.59-0.74c-2.25-2.99-3.58-6.7-3.58-10.73
	c0-9.68,7.68-17.56,17.29-17.87c0.19-0.01,0.39-0.01,0.59-0.01c0.14,0,0.27,0,0.41,0.01c5.13,0.11,9.72,2.38,12.91,5.95
	c0.21,0.23,0.42,0.47,0.61,0.72C161.99,146.98,163.47,150.88,163.47,155.12z"/>
<rect x="145" y="118" style="fill:#FFFFFF;" width="1" height="74"/>
<polygon style="fill:#FFFFFF;" points="175.6,130.73 174.27,131.82 159.52,143.92 146,155.01 145,155.83 131.88,166.59 
	117.73,178.19 115.71,179.85 115.11,179.12 117.13,177.47 131.29,165.85 145,154.61 146,153.78 158.91,143.2 173.67,131.09 175,130 
	"/>
</svg>
