<?xml version="1.0" encoding="utf-8"?>
<!-- Generator: Adobe Illustrator 26.0.1, SVG Export Plug-In . SVG Version: 6.00 Build 0)  -->
<svg version="1.1" id="Layer_1" xmlns="http://www.w3.org/2000/svg" xmlns:xlink="http://www.w3.org/1999/xlink" x="0px" y="0px"
	 viewBox="0 0 373 373" style="enable-background:new 0 0 373 373;" xml:space="preserve">
<path style="fill:none;stroke:#215171;stroke-width:2;stroke-linecap:round;stroke-linejoin:round;stroke-miterlimit:10;" d="
	M237.605,225.178H127.834c-1.727,0-3.127-1.4-3.127-3.127v-58.408c0-1.727,1.4-3.127,3.127-3.127h109.771
	c1.727,0,3.127,1.4,3.127,3.127v58.408C240.732,223.778,239.332,225.178,237.605,225.178z"/>
<path style="fill:#BAC9D3;" d="M184.655,336.764c46.253,0,83.748-5.585,83.748-12.474c0-6.888-37.495-12.473-83.748-12.473
	s-83.749,5.585-83.749,12.473C100.906,331.179,138.402,336.764,184.655,336.764z"/>
<path style="fill:#215171;" d="M240.029,32.327c0.712,0,1.426,0.713,1.426,1.426V58.7c0,0.712-0.713,1.426-1.426,1.426
	c-0.713,0-1.426-0.712-1.426-1.426V33.753C238.604,33.04,239.316,32.327,240.029,32.327z"/>
<path style="fill:#215171;" d="M253.571,46.227c0,0.712-0.713,1.426-1.426,1.426h-24.946c-0.713,0-1.427-0.712-1.427-1.426
	c0-0.712,0.713-1.426,1.427-1.426h24.946C253.215,44.801,253.571,45.513,253.571,46.227z"/>
<path style="fill:#215171;" d="M22.283,94.692c0.712,0,1.069,0.357,1.069,0.712v16.393c0,0.357-0.357,0.713-0.712,0.713h-0.357
	c-0.357,0-0.712-0.357-0.712-0.713V95.406C21.57,94.692,21.57,94.692,22.283,94.692z"/>
<path style="fill:#215171;" d="M31.192,103.246c0,0.712-0.357,1.069-0.712,1.069H14.087c-0.357,0-0.713-0.357-0.713-0.713v-0.356
	c0-0.357,0.357-0.713,0.713-0.713H30.48C30.835,102.533,31.192,102.89,31.192,103.246z"/>
<path style="fill:#215171;" d="M350.862,120.708h0.712c0.357,0,0.713,0.357,0.713,0.712v19.957c0,0.357-0.357,0.713-0.713,0.713
	h-0.712c-0.357,0-0.713-0.357-0.713-0.713v-19.955C350.149,121.065,350.506,120.708,350.862,120.708z"/>
<path style="fill:#215171;" d="M361.91,131.044v0.713c0,0.357-0.357,0.712-0.713,0.712h-19.956c-0.357,0-0.713-0.356-0.713-0.712
	v-0.713c0-0.356,0.357-0.712,0.713-0.712h20.313C361.553,130.331,361.91,130.688,361.91,131.044z"/>
<path style="fill:#215171;" d="M113.159,43.374c0-0.357,0-0.357,0.357-0.357h8.91c0.357,0,0.357,0.357,0.357,0.357v0.357
	c0,0.357-0.357,0.357-0.357,0.357h-8.91C113.159,44.087,113.159,43.73,113.159,43.374z"/>
<path style="fill:#215171;" d="M117.792,48.364c-0.356,0-0.356-0.357-0.356-0.357v-8.91c0-0.357,0.356-0.357,0.356-0.357h0.357
	c0.357,0,0.357,0.357,0.357,0.357v8.91C118.505,48.364,118.149,48.364,117.792,48.364z"/>
<path style="fill:#215171;" d="M177.307,74.023c0-0.357,0.356-0.357,0.356-0.357h8.91c0.357,0,0.357,0.357,0.357,0.357v0.357
	c0,0.357-0.357,0.357-0.357,0.357h-8.91C177.663,74.735,177.307,74.378,177.307,74.023z"/>
<path style="fill:#215171;" d="M181.941,79.012c-0.357,0-0.357-0.357-0.357-0.357v-8.91c0-0.357,0.357-0.357,0.357-0.357h0.357
	c0.356,0,0.356,0.357,0.356,0.357v8.91C182.653,78.655,182.653,79.012,181.941,79.012z"/>
<path style="fill:#215171;" d="M299.9,73.666c0-0.357,0.357-0.357,0.357-0.357h8.91c0.357,0,0.357,0.357,0.357,0.357v0.357
	c0,0.357-0.357,0.357-0.357,0.357h-8.91C300.257,74.023,299.9,74.023,299.9,73.666z"/>
<path style="fill:#215171;" d="M304.89,78.656c-0.357,0-0.357-0.357-0.357-0.357v-8.909c0-0.357,0.357-0.357,0.357-0.357h0.357
	c0.357,0,0.357,0.357,0.357,0.357v8.91C305.247,78.299,305.247,78.656,304.89,78.656z"/>
<path style="fill:#093F68;" d="M300.311,267.173H75.95c-4.17-0.006-7.548-3.386-7.556-7.556v-135.42
	c0-5.696,4.617-10.312,10.312-10.312h218.631c5.815,0,10.529,4.713,10.529,10.528v135.204
	C307.859,263.787,304.481,267.165,300.311,267.173z M70.808,125.415v134.202c0,2.84,2.301,5.141,5.141,5.141h224.362
	c2.837-0.006,5.135-2.305,5.141-5.141V125.622c0-5.149-4.174-9.323-9.322-9.323l-216.217,0.012
	C74.885,116.311,70.808,120.387,70.808,125.415z"/>
<path style="fill:#BAC9D3;" d="M126.627,129.309H89.045c-0.666,0-1.207-0.541-1.207-1.207c0-0.667,0.541-1.207,1.207-1.207h37.582
	c0.667,0,1.208,0.54,1.208,1.207C127.835,128.768,127.294,129.309,126.627,129.309z"/>
<path style="fill:#BAC9D3;" d="M157.14,129.311h-23.076c-0.667,0-1.208-0.541-1.208-1.207c0-0.667,0.541-1.208,1.208-1.208h23.076
	c0.666,0,1.207,0.541,1.207,1.208C158.346,128.77,157.806,129.311,157.14,129.311z"/>
<path style="fill:#BAC9D3;" d="M171.646,129.311h-7.821c-0.666,0-1.207-0.541-1.207-1.207c0-0.667,0.541-1.208,1.207-1.208h7.869
	c0.667,0,1.208,0.541,1.208,1.208c0,0.666-0.541,1.207-1.208,1.207H171.646z"/>
<path style="fill:#BAC9D3;" d="M118.356,138.072H89.528c-0.533,0-0.966-0.433-0.966-0.966c0-0.534,0.433-0.966,0.966-0.966h28.829
	c0.533,0,0.966,0.432,0.966,0.966C119.323,137.639,118.889,138.072,118.356,138.072z"/>
<path style="fill:#BAC9D3;" d="M107.991,148.078H89.528c-0.533,0-0.966-0.433-0.966-0.966c0-0.534,0.433-0.966,0.966-0.966h18.464
	c0.534,0,0.966,0.432,0.966,0.966C108.958,147.645,108.524,148.078,107.991,148.078z"/>
<path style="fill:#BAC9D3;" d="M118.355,148.078h-5.014c-0.533,0-0.966-0.433-0.966-0.966c0-0.534,0.433-0.966,0.966-0.966h5.053
	c0.533,0,0.966,0.432,0.966,0.966c0,0.533-0.433,0.966-0.966,0.966H118.355z"/>
<path style="fill:#BAC9D3;" d="M98.759,159.994h-9.232c-0.533,0-0.966-0.433-0.966-0.966c0-0.534,0.433-0.966,0.966-0.966h9.232
	c0.533,0,0.966,0.432,0.966,0.966S99.293,159.994,98.759,159.994z"/>
<path style="fill:#BAC9D3;" d="M294.72,243.7h-46.103c-0.659,0-1.193-0.535-1.193-1.194s0.534-1.194,1.193-1.194h46.102
	c0.659,0,1.194,0.535,1.194,1.194S295.379,243.7,294.72,243.7z"/>
<path style="fill:#BAC9D3;" d="M294.72,255.784h-21.064c-0.658,0-1.193-0.535-1.193-1.194s0.535-1.194,1.193-1.194h21.064
	c0.659,0,1.193,0.535,1.193,1.194S295.379,255.784,294.72,255.784z"/>
<path style="fill:#BAC9D3;" d="M259.508,255.784h-10.89c-0.659,0-1.193-0.535-1.193-1.194s0.534-1.194,1.193-1.194h10.89
	c0.658,0,1.193,0.535,1.193,1.194S260.166,255.784,259.508,255.784z"/>
<g>
	
		<line style="fill:none;stroke:#215171;stroke-linecap:round;stroke-linejoin:round;stroke-miterlimit:10;" x1="124.573" y1="173.42" x2="240.573" y2="173.42"/>
	
		<line style="fill:none;stroke:#215171;stroke-linecap:round;stroke-linejoin:round;stroke-miterlimit:10;" x1="124.573" y1="186.42" x2="240.573" y2="186.42"/>
</g>
<line style="fill:none;stroke:#215171;stroke-linecap:round;stroke-linejoin:round;stroke-miterlimit:10;" x1="124.573" y1="199.42" x2="240.573" y2="199.42"/>
<line style="fill:none;stroke:#215171;stroke-linecap:round;stroke-linejoin:round;stroke-miterlimit:10;" x1="124.573" y1="212.42" x2="240.573" y2="212.42"/>
<line style="fill:none;stroke:#215171;stroke-linecap:round;stroke-linejoin:round;stroke-miterlimit:10;" x1="154.637" y1="159.892" x2="154.637" y2="225.013"/>
<line style="fill:none;stroke:#215171;stroke-linecap:round;stroke-linejoin:round;stroke-miterlimit:10;" x1="154.637" y1="159.892" x2="154.637" y2="225.013"/>
<line style="fill:none;stroke:#215171;stroke-linecap:round;stroke-linejoin:round;stroke-miterlimit:10;" x1="184.28" y1="160.529" x2="184.28" y2="225.65"/>
<line style="fill:none;stroke:#215171;stroke-linecap:round;stroke-linejoin:round;stroke-miterlimit:10;" x1="214.28" y1="160.529" x2="214.28" y2="225.65"/>
</svg>
