<?xml version="1.0" encoding="utf-8"?>
<!-- Generator: Adobe Illustrator 26.0.1, SVG Export Plug-In . SVG Version: 6.00 Build 0)  -->
<svg version="1.1" id="Layer_1" xmlns="http://www.w3.org/2000/svg" xmlns:xlink="http://www.w3.org/1999/xlink" x="0px" y="0px"
	 viewBox="0 0 97.8 85" style="enable-background:new 0 0 97.8 85;" xml:space="preserve">
<g id="Layer_2_00000113332323140316532420000013368240088526420630_">
	<g id="Layer_1-2">
		<ellipse style="fill:#BAC9D3;" cx="48.2" cy="81.5" rx="23.5" ry="3.5"/>
		<path style="fill:#215171;" d="M63.6,0L63.6,0C63.8,0,64,0.2,64,0.4v7c0,0.2-0.2,0.4-0.4,0.4l0,0c-0.2,0-0.4-0.2-0.4-0.4v-7
			C63.2,0.2,63.4,0,63.6,0z"/>
		<path style="fill:#215171;" d="M67.4,3.9L67.4,3.9c0,0.2-0.2,0.4-0.4,0.4h-7c-0.2,0-0.4-0.2-0.4-0.4l0,0c0-0.2,0.2-0.4,0.4-0.4h7
			C67.3,3.5,67.4,3.7,67.4,3.9z"/>
		<path style="fill:#215171;" d="M2.5,17.5L2.5,17.5c0.2,0,0.3,0.1,0.3,0.2v4.6c0,0.1-0.1,0.2-0.2,0.2H2.5c-0.1,0-0.2-0.1-0.2-0.2
			v-4.6C2.3,17.5,2.3,17.5,2.5,17.5z"/>
		<path style="fill:#215171;" d="M5,19.9L5,19.9c0,0.2-0.1,0.3-0.2,0.3H0.2C0.1,20.2,0,20.1,0,20v-0.1c0-0.1,0.1-0.2,0.2-0.2h4.6
			C4.9,19.7,5,19.8,5,19.9z"/>
		<path style="fill:#215171;" d="M94.7,24.8h0.2c0.1,0,0.2,0.1,0.2,0.2v5.6c0,0.1-0.1,0.2-0.2,0.2h-0.2c-0.1,0-0.2-0.1-0.2-0.2V25
			C94.5,24.9,94.6,24.8,94.7,24.8z"/>
		<path style="fill:#215171;" d="M97.8,27.7v0.2c0,0.1-0.1,0.2-0.2,0.2H92c-0.1,0-0.2-0.1-0.2-0.2v-0.2c0-0.1,0.1-0.2,0.2-0.2h5.7
			C97.7,27.5,97.8,27.6,97.8,27.7z"/>
	</g>
</g>
<path style="fill:#215171;" d="M28,3.1C28,3,28,3,28.1,3h2.5c0.1,0,0.1,0.1,0.1,0.1v0.1c0,0.1-0.1,0.1-0.1,0.1h-2.5
	C28,3.3,28,3.2,28,3.1"/>
<path style="fill:#215171;" d="M29.3,4.5c-0.1,0-0.1-0.1-0.1-0.1V1.9c0-0.1,0.1-0.1,0.1-0.1h0.1c0.1,0,0.1,0.1,0.1,0.1v2.5
	C29.5,4.5,29.4,4.5,29.3,4.5"/>
<path style="fill:#215171;" d="M46,11.7c0-0.1,0.1-0.1,0.1-0.1h2.5c0.1,0,0.1,0.1,0.1,0.1v0.1c0,0.1-0.1,0.1-0.1,0.1h-2.5
	C46.1,11.9,46,11.8,46,11.7"/>
<path style="fill:#215171;" d="M47.3,13.1c-0.1,0-0.1-0.1-0.1-0.1v-2.5c0-0.1,0.1-0.1,0.1-0.1h0.1c0.1,0,0.1,0.1,0.1,0.1V13
	C47.5,13,47.5,13.1,47.3,13.1"/>
<path style="fill:#215171;" d="M80.4,11.6c0-0.1,0.1-0.1,0.1-0.1H83c0.1,0,0.1,0.1,0.1,0.1v0.1c0,0.1-0.1,0.1-0.1,0.1h-2.5
	C80.5,11.7,80.4,11.7,80.4,11.6"/>
<path style="fill:#215171;" d="M81.8,13c-0.1,0-0.1-0.1-0.1-0.1v-2.5c0-0.1,0.1-0.1,0.1-0.1h0.1c0.1,0,0.1,0.1,0.1,0.1v2.5
	C81.9,12.9,81.9,13,81.8,13"/>
<path style="fill-rule:evenodd;clip-rule:evenodd;fill:none;stroke:#215171;stroke-linecap:round;stroke-linejoin:round;stroke-miterlimit:10;" d="
	M32.371,42.567h28.766c1.164,0.006,2.106,0.948,2.112,2.112v22.32c-0.004,1.165-0.947,2.108-2.112,2.112H32.371
	c-1.165-0.002-2.11-0.946-2.112-2.112v-22.32C30.263,43.514,31.206,42.571,32.371,42.567z"/>
<path style="fill-rule:evenodd;clip-rule:evenodd;fill:none;stroke:#215171;stroke-linecap:round;stroke-linejoin:round;stroke-miterlimit:10;" d="
	M45.011,57.27l-2.287,5.97h8.032l-2.112-6.054c2.04-1.051,2.842-3.557,1.791-5.597s-3.557-2.842-5.597-1.791
	c-2.04,1.051-2.842,3.557-1.791,5.597C43.474,56.222,44.165,56.882,45.011,57.27z"/>
<path style="fill-rule:evenodd;clip-rule:evenodd;fill:none;stroke:#215171;stroke-linecap:round;stroke-linejoin:round;stroke-miterlimit:10;" d="
	M55.681,35.289c-0.082-2.349-1.024-4.585-2.646-6.286c-3.239-3.474-8.681-3.664-12.155-0.425c-0.147,0.137-0.288,0.278-0.425,0.425
	c-1.72,1.797-2.677,4.191-2.668,6.679v6.885H33.8v-6.885c-0.006-3.517,1.348-6.9,3.778-9.443c4.758-5.062,12.72-5.309,17.782-0.55
	c0.189,0.178,0.373,0.361,0.55,0.55c2.339,2.443,3.685,5.669,3.774,9.05H55.681z"/>
<circle style="fill-rule:evenodd;clip-rule:evenodd;fill:none;stroke:#215171;stroke-width:0.5;stroke-linecap:round;stroke-linejoin:round;stroke-miterlimit:10;" cx="32.465" cy="45.299" r="0.573"/>
<circle style="fill-rule:evenodd;clip-rule:evenodd;fill:none;stroke:#215171;stroke-width:0.5;stroke-linecap:round;stroke-linejoin:round;stroke-miterlimit:10;" cx="61.169" cy="45.299" r="0.573"/>
<circle style="fill-rule:evenodd;clip-rule:evenodd;fill:none;stroke:#215171;stroke-width:0.5;stroke-linecap:round;stroke-linejoin:round;stroke-miterlimit:10;" cx="61.07" cy="66.666" r="0.573"/>
<circle style="fill-rule:evenodd;clip-rule:evenodd;fill:none;stroke:#215171;stroke-width:0.5;stroke-linecap:round;stroke-linejoin:round;stroke-miterlimit:10;" cx="32.465" cy="66.666" r="0.573"/>
</svg>
