<?xml version="1.0" encoding="utf-8"?>
<!-- Generator: Adobe Illustrator 26.5.0, SVG Export Plug-In . SVG Version: 6.00 Build 0)  -->
<svg version="1.1" id="Layer_1" xmlns="http://www.w3.org/2000/svg" xmlns:xlink="http://www.w3.org/1999/xlink" x="0px" y="0px"
	 viewBox="0 0 373 373" style="enable-background:new 0 0 373 373;" xml:space="preserve">
<g id="Layer_1_00000138534472229336325220000015736193468915820477_">
	<path style="fill:#215171;" d="M240,32.3c0.7,0,1.4,0.7,1.4,1.4v24.9c0,0.7-0.7,1.4-1.4,1.4s-1.4-0.7-1.4-1.4V33.8
		C238.6,33,239.3,32.3,240,32.3z"/>
	<path style="fill:#215171;" d="M253.6,46.2c0,0.7-0.7,1.4-1.4,1.4h-24.9c-0.7,0-1.4-0.7-1.4-1.4s0.7-1.4,1.4-1.4h24.9
		C253.2,44.8,253.6,45.5,253.6,46.2z"/>
	<path style="fill:#215171;" d="M22.3,94.7c0.7,0,1.1,0.4,1.1,0.7v16.4c0,0.4-0.4,0.7-0.7,0.7h-0.4c-0.4,0-0.7-0.4-0.7-0.7V95.4
		C21.6,94.7,21.6,94.7,22.3,94.7z"/>
	<path style="fill:#215171;" d="M31.2,103.2c0,0.7-0.4,1.1-0.7,1.1H14.1c-0.4,0-0.7-0.4-0.7-0.7v-0.4c0-0.4,0.4-0.7,0.7-0.7h16.4
		C30.8,102.5,31.2,102.9,31.2,103.2z"/>
	<path style="fill:#215171;" d="M350.9,120.7h0.7c0.4,0,0.7,0.4,0.7,0.7v20c0,0.4-0.4,0.7-0.7,0.7h-0.7c-0.4,0-0.7-0.4-0.7-0.7v-20
		C350.1,121.1,350.5,120.7,350.9,120.7z"/>
	<path style="fill:#215171;" d="M361.9,131v0.7c0,0.4-0.4,0.7-0.7,0.7h-20c-0.4,0-0.7-0.4-0.7-0.7V131c0-0.4,0.4-0.7,0.7-0.7h20.3
		C361.6,130.3,361.9,130.7,361.9,131z"/>
	<path style="fill:#215171;" d="M113.2,43.4c0-0.4,0-0.4,0.4-0.4h8.9c0.4,0,0.4,0.4,0.4,0.4v0.4c0,0.4-0.4,0.4-0.4,0.4h-8.9
		C113.2,44.1,113.2,43.7,113.2,43.4z"/>
	<path style="fill:#215171;" d="M117.8,48.4c-0.4,0-0.4-0.4-0.4-0.4v-8.9c0-0.4,0.4-0.4,0.4-0.4h0.4c0.4,0,0.4,0.4,0.4,0.4V48
		C118.5,48.4,118.1,48.4,117.8,48.4z"/>
	<path style="fill:#215171;" d="M177.3,74c0-0.4,0.4-0.4,0.4-0.4h8.9c0.4,0,0.4,0.4,0.4,0.4v0.4c0,0.4-0.4,0.4-0.4,0.4h-8.9
		C177.7,74.7,177.3,74.4,177.3,74z"/>
	<path style="fill:#215171;" d="M181.9,79c-0.4,0-0.4-0.4-0.4-0.4v-8.9c0-0.4,0.4-0.4,0.4-0.4h0.4c0.4,0,0.4,0.4,0.4,0.4v8.9
		C182.7,78.7,182.7,79,181.9,79z"/>
	<path style="fill:#215171;" d="M299.9,73.7c0-0.4,0.4-0.4,0.4-0.4h8.9c0.4,0,0.4,0.4,0.4,0.4V74c0,0.4-0.4,0.4-0.4,0.4h-8.9
		C300.3,74,299.9,74,299.9,73.7z"/>
	<path style="fill:#215171;" d="M304.9,78.7c-0.4,0-0.4-0.4-0.4-0.4v-8.9c0-0.4,0.4-0.4,0.4-0.4h0.4c0.4,0,0.4,0.4,0.4,0.4v8.9
		C305.2,78.3,305.2,78.7,304.9,78.7z"/>
</g>
<g id="Layer_2_00000137848986590306150890000017408147311470990739_">
</g>
<g id="Layer_3">
</g>
<g>
	<g id="Layer_4">
		<g>
			<path style="fill:none;stroke:#215171;stroke-width:5;stroke-linecap:round;stroke-linejoin:round;stroke-miterlimit:10;" d="
				M224.07,167.397c0.067,0.222,0.111,0.458,0.13,0.703c0.1,1.8-0.2,3.5-0.7,5.2c-0.6,1.9-1.2,4-1.7,6.2c-0.4,1.6-0.7,3.2-1.1,4.8
				c-0.2,1.3-1.2,2.3-2.4,2.7c-0.4,0.2-0.8,0.4-1.1,0.6c-0.5,0.3-0.9,0.8-1.1,1.4c-0.9,3.4-3.2,9.8-9.1,15.5
				c-1.9,1.9-9.2,8.8-20,9.3c-1.7,0.1-3,0-3.8-0.1c-1.346-0.09-10.501-1.146-16.702-7.285"/>
			<path style="fill:none;stroke:#215171;stroke-width:5;stroke-linecap:round;stroke-linejoin:round;stroke-miterlimit:10;" d="
				M166.498,206.415c-0.71-0.703-1.381-1.473-1.998-2.315c-2.9-4-7.7-13.9-8.3-15.3c-0.1-0.2-0.3-1-1.1-1.4
				c-0.3-0.2-0.7-0.4-1.1-0.6c-1.2-0.5-2.1-1.5-2.4-2.7c-0.3-1.5-0.6-3.1-1.1-4.8c-0.5-2.2-1.1-4.2-1.7-6.2
				c-0.5-1.7-0.8-3.4-0.7-5.2"/>
			
				<path style="fill:none;stroke:#215171;stroke-width:4.5092;stroke-linecap:round;stroke-linejoin:round;stroke-miterlimit:10;" d="
				M149.344,166.197c-0.07-1.293-0.19-3.513-0.344-6.297c-0.261-4.712-0.334-5.585-0.3-6.9c0.1-3.9,0.7-7,1-8.2
				c0.9-3.8,4.3-14,10.4-16.2c9.4-3.4,15.1,15.8,34.4,18.8c10.6,1.7,25.2-1.5,26.9,2.4c0.1,0.1,1,2.5,1.2,4.9c0,0.5,0.1,1.8,0.1,3.2
				c0,0,0.004,0.522,0,1.1c-0.016,2.175-0.148,4.793-0.21,5.936"/>
			<g>
				<g>
					<path style="fill:none;stroke:#215171;stroke-width:5;stroke-linecap:round;stroke-linejoin:round;stroke-miterlimit:10;" d="
						M164.4,205.7l0.2,6.5c0.1,2.2-0.2,4.5-1.1,6.6c-0.7,1.7-1.8,3.5-3.4,4.9c-2.1,1.7-4.2,2.2-5.6,2.6c-8.6,2.4-15.6,4-20.2,4.9
						c-9.9,2-14.9,3.1-18.6,5.9c-2.7,2.1-4.6,4.5-6,6.9c-1.3,2.3-2.1,4.8-2.3,7.4c-0.9,13.2-1.8,26.5-2.6,39.7"/>
				</g>
			</g>
		</g>
	</g>
	<g>
		<path style="fill:none;stroke:#215171;stroke-width:5;stroke-linecap:round;stroke-linejoin:round;stroke-miterlimit:10;" d="
			M268.2,290.1c-0.9-13.2-1.8-26.5-2.6-39.7c-0.2-2.6-0.9-5.2-2.3-7.4c-1.4-2.3-3.3-4.8-6-6.9c-3.7-2.8-8.7-3.9-18.6-5.9
			c-4.7-0.9-11.7-2.5-20.2-4.9c-1.3-0.4-3.5-0.9-5.6-2.6c-1.7-1.4-2.8-3.2-3.4-4.9c-0.8-2.1-1.1-4.3-1.1-6.6l0.2-6.5"/>
	</g>
</g>
<line style="fill:none;stroke:#215171;stroke-width:5.6666;stroke-linecap:round;stroke-linejoin:round;stroke-miterlimit:10;" x1="214.9" y1="264" x2="243.8" y2="264"/>
<path style="fill:none;stroke:#215171;stroke-width:5;stroke-linecap:round;stroke-linejoin:round;stroke-miterlimit:10;" d="
	M126.4,229.6l-0.5-7.6c-0.7-7-1.3-16.5-1.1-27.8c0.1-6,0.3-14,1.6-23.6c1.1-8.3,3.5-20.6,9-34.6c3.5-6.5,10.3-17.2,21.1-24.4
	c11-7.3,20.6-7.3,29.6-7.2c10.7,0,19.7,0.1,29.6,7.6c11.6,8.9,17.3,23,20.1,30.1c6.6,16.7,7.5,32.3,8.5,48.7
	c0.8,14.1,0.3,25.8-0.3,33.9l-0.3,5.3"/>
<path style="fill:none;stroke:#215171;stroke-width:5;stroke-linecap:round;stroke-linejoin:round;stroke-miterlimit:10;" d="
	M160.1,223.6c-1.3,27.1,13.9,46,25.5,46.3c11.8,0.3,28.4-18.3,27.7-46.3"/>
</svg>
