<svg width="538" height="311" viewBox="0 0 538 311" fill="none" xmlns="http://www.w3.org/2000/svg">
<g clip-path="url(#clip0)">
<path d="M519.089 188.723C500.075 237.807 464.328 280.81 414.676 299.709C408.218 302.163 401.624 304.245 394.926 305.944C359.501 314.949 320.746 311.817 288.091 295.408C274.231 288.439 261.593 279.229 247.683 272.36C233.774 265.49 217.889 260.994 202.75 264.385C189.714 267.304 178.716 275.671 167.643 283.125C141.538 300.697 110.151 314.603 79.2395 308.568C65.016 305.794 51.01 298.111 44.4045 285.269C29.8045 256.877 57.3395 223.121 51.7631 191.722C48.1946 171.626 31.8962 156.578 21.764 138.843C4.42388 108.507 6.47373 68.2114 26.805 39.7862C47.1362 11.3611 84.6695 -3.71697 119.082 2.73135C161.046 10.5978 192.772 46.0052 233.577 58.5348C259.096 66.3637 286.802 64.0279 311.175 53.7173C350.553 37.0543 404.652 11.4987 448.967 15.6614C472.532 17.8761 495.645 28.3036 511.199 46.1094C530.861 68.5868 536.755 100.499 533.476 130.138C531.224 150.201 526.389 169.892 519.089 188.723Z" fill="url(#paint0_linear)"/>
<path d="M522.262 226.291C521.388 226.29 520.517 226.185 519.668 225.978C516.983 225.32 514.652 223.665 513.149 221.351C511.647 219.037 511.087 216.239 511.584 213.527C512.081 210.816 513.597 208.395 515.823 206.76C518.049 205.126 520.817 204.4 523.562 204.731C526.307 205.062 528.821 206.425 530.592 208.542C532.363 210.659 533.257 213.37 533.091 216.121C532.925 218.873 531.712 221.457 529.699 223.348C527.687 225.238 525.027 226.291 522.262 226.291ZM522.262 209.532C520.824 209.538 519.437 210.067 518.363 211.021C517.29 211.975 516.603 213.288 516.432 214.712C516.261 216.135 516.618 217.572 517.436 218.752C518.254 219.931 519.477 220.772 520.873 221.115C521.682 221.309 522.522 221.33 523.339 221.176C524.156 221.023 524.932 220.699 525.614 220.226C526.297 219.752 526.871 219.14 527.299 218.429C527.727 217.718 528 216.925 528.098 216.102C528.197 215.279 528.12 214.444 527.872 213.653C527.624 212.862 527.21 212.132 526.659 211.511C526.108 210.891 525.431 210.393 524.673 210.052C523.915 209.711 523.094 209.534 522.262 209.532Z" fill="#EAEAEA"/>
<path d="M512.358 237.765C512.975 235.229 511.413 232.674 508.869 232.059C506.325 231.444 503.762 233.002 503.145 235.538C502.529 238.075 504.091 240.629 506.635 241.244C509.179 241.86 511.741 240.302 512.358 237.765Z" fill="#EAEAEA"/>
<path d="M23.0881 225.261C20.2148 225.198 17.4821 224.008 15.4835 221.949C13.4848 219.89 12.3814 217.128 12.4128 214.262C12.4442 211.397 13.6078 208.659 15.6511 206.644C17.6945 204.629 20.4525 203.499 23.3266 203.499C26.2006 203.499 28.9587 204.629 31.002 206.644C33.0453 208.659 34.209 211.397 34.2404 214.262C34.2718 217.128 33.1684 219.89 31.1697 221.949C29.171 224.008 26.4384 225.198 23.565 225.261H23.0881ZM23.0881 208.506H22.8413C21.2894 208.539 19.8134 209.182 18.7338 210.294C17.6542 211.406 17.058 212.897 17.0748 214.445C17.0916 215.992 17.72 217.471 18.8235 218.559C19.9271 219.648 21.4166 220.258 22.9689 220.258C24.5211 220.258 26.0107 219.648 27.1142 218.559C28.2177 217.471 28.8461 215.992 28.8629 214.445C28.8797 212.897 28.2836 211.406 27.204 210.294C26.1243 209.182 24.6484 208.539 23.0965 208.506H23.0881Z" fill="#EAEAEA"/>
<path d="M15.3066 243.522C17.9219 243.41 19.9505 241.205 19.8377 238.597C19.7249 235.99 17.5134 233.967 14.8981 234.08C12.2828 234.192 10.2542 236.397 10.367 239.005C10.4798 241.612 12.6914 243.635 15.3066 243.522Z" fill="#EAEAEA"/>
<path d="M296.635 49.325C294.031 49.3273 291.512 48.3999 289.534 46.7107C287.555 45.0214 286.249 42.6819 285.852 40.1157C285.454 37.5494 285.991 34.9259 287.365 32.7201C288.739 30.5143 290.86 28.8719 293.344 28.0902C295.827 27.3084 298.51 27.4391 300.905 28.4584C303.3 29.4777 305.251 31.3184 306.403 33.6472C307.555 35.9761 307.833 38.6392 307.186 41.1546C306.539 43.67 305.011 45.8715 302.877 47.3605C301.047 48.637 298.869 49.3228 296.635 49.325ZM296.602 32.5744C295.078 32.5728 293.612 33.1577 292.51 34.2071C291.408 35.2565 290.755 36.6894 290.686 38.2072C290.618 39.7251 291.14 41.2107 292.143 42.3545C293.146 43.4982 294.553 44.2119 296.071 44.3467C297.589 44.4815 299.1 44.027 300.29 43.078C301.48 42.129 302.257 40.7587 302.459 39.2527C302.661 37.7467 302.272 36.2212 301.373 34.9941C300.474 33.7671 299.135 32.9332 297.635 32.6662C297.294 32.6055 296.948 32.5748 296.602 32.5744Z" fill="#EAEAEA"/>
<path d="M274.382 48.7302C276.525 47.2317 277.044 44.2846 275.541 42.1477C274.038 40.0109 271.082 39.4933 268.939 40.9918C266.796 42.4903 266.277 45.4374 267.78 47.5743C269.283 49.7111 272.238 50.2287 274.382 48.7302Z" fill="#EAEAEA"/>
<path d="M537.983 105.383C537.983 100.796 536.156 96.3978 532.903 93.1548C529.651 89.9117 525.239 88.0898 520.639 88.0898C520.254 88.0898 519.874 88.0898 519.497 88.1274C519.522 87.752 519.535 87.3724 519.535 86.9887C519.534 84.5309 519.008 82.1014 517.992 79.8623C516.976 77.6231 515.492 75.6257 513.641 74.0031C511.789 72.3805 509.612 71.1701 507.254 70.4526C504.896 69.735 502.412 69.5268 499.967 69.8418C497.523 70.1568 495.173 70.9878 493.076 72.2794C490.979 73.5709 489.182 75.2934 487.805 77.332C486.427 79.3705 485.502 81.6783 485.09 84.1015C484.678 86.5248 484.789 89.0077 485.415 91.3849C483.319 89.8692 480.909 88.8407 478.362 88.3749C475.815 87.9091 473.196 88.0178 470.696 88.693C468.197 89.3682 465.881 90.5928 463.918 92.277C461.956 93.9611 460.396 96.062 459.354 98.4255C458.312 100.789 457.814 103.355 457.897 105.936C457.98 108.516 458.641 111.045 459.832 113.338C461.023 115.63 462.713 117.628 464.78 119.184C466.846 120.739 469.236 121.814 471.773 122.329C472.809 125.069 474.526 127.501 476.762 129.398C478.999 131.296 481.681 132.596 484.559 133.177C487.438 133.758 490.416 133.601 493.217 132.721C496.017 131.84 498.548 130.265 500.571 128.144C502.642 129.702 505.036 130.777 507.578 131.29C510.121 131.803 512.746 131.742 515.261 131.109C517.776 130.477 520.117 129.29 522.112 127.637C524.106 125.983 525.703 123.904 526.784 121.554C530.076 120.309 532.911 118.096 534.911 115.208C536.911 112.319 537.983 108.893 537.983 105.383Z" fill="#E4E4E4"/>
<path d="M80.0909 63.8154C80.0931 61.5434 79.6462 59.2932 78.7758 57.1935C77.9054 55.0938 76.6286 53.1857 75.0182 51.5782C73.4079 49.9707 71.4956 48.6953 69.3907 47.825C67.2858 46.9546 65.0295 46.5064 62.7508 46.5058C62.3659 46.5058 61.9852 46.5058 61.6087 46.5434C61.6338 46.168 61.6463 45.7884 61.6463 45.4047C61.6459 42.9469 61.1199 40.5174 60.1035 38.2783C59.0872 36.0391 57.6038 34.0417 55.7522 32.4191C53.9006 30.7965 51.7234 29.5862 49.3657 28.8686C47.0079 28.1511 44.5239 27.9428 42.0791 28.2579C39.6343 28.5729 37.285 29.4038 35.1877 30.6954C33.0904 31.987 31.2933 33.7094 29.9162 35.748C28.5392 37.7865 27.6138 40.0943 27.2017 42.5176C26.7897 44.9408 26.9005 47.4237 27.5267 49.8009C25.4304 48.2852 23.0204 47.2567 20.4735 46.7909C17.9266 46.3251 15.3073 46.4338 12.808 47.109C10.3087 47.7843 7.9928 49.0089 6.03016 50.693C4.06752 52.3771 2.50799 54.478 1.46603 56.8415C0.424069 59.205 -0.0738879 61.7711 0.0087035 64.3515C0.0912949 66.932 0.752339 69.4612 1.94332 71.7537C3.13431 74.0461 4.82501 76.0436 6.89135 77.5995C8.9577 79.1555 11.3472 80.2304 13.8846 80.7453C14.9216 83.4823 16.6381 85.9123 18.8735 87.8077C21.1089 89.7031 23.7901 91.0021 26.6662 91.583C29.5422 92.1639 32.5191 92.0078 35.3181 91.1293C38.1172 90.2507 40.6469 88.6785 42.6705 86.5596C44.7408 88.1177 47.1353 89.193 49.6776 89.7062C52.2199 90.2195 54.8453 90.1577 57.3604 89.5253C59.8756 88.893 62.2165 87.7063 64.2107 86.0525C66.205 84.3987 67.8018 82.3201 68.8836 79.9695C72.1743 78.7277 75.0085 76.5176 77.0102 73.6324C79.0118 70.7472 80.0862 67.3235 80.0909 63.8154Z" fill="#E4E4E4"/>
<path d="M399.17 309.872H149.631V304.45H399.17C399.891 304.45 400.583 304.736 401.093 305.244C401.603 305.753 401.889 306.442 401.889 307.161C401.889 307.88 401.603 308.57 401.093 309.078C400.583 309.587 399.891 309.872 399.17 309.872Z" fill="#426572"/>
<path d="M138.47 309.872H123.213C122.492 309.872 121.8 309.587 121.29 309.078C120.781 308.57 120.494 307.88 120.494 307.161C120.494 306.442 120.781 305.753 121.29 305.244C121.8 304.736 122.492 304.45 123.213 304.45H138.47C139.191 304.45 139.883 304.736 140.393 305.244C140.903 305.753 141.189 306.442 141.189 307.161C141.189 307.88 140.903 308.57 140.393 309.078C139.883 309.587 139.191 309.872 138.47 309.872Z" fill="#426572"/>
<path d="M113.311 309.872H108.45C107.729 309.872 107.037 309.587 106.527 309.078C106.017 308.57 105.731 307.88 105.731 307.161C105.731 306.442 106.017 305.753 106.527 305.244C107.037 304.736 107.729 304.45 108.45 304.45H113.311C114.032 304.45 114.724 304.736 115.234 305.244C115.744 305.753 116.03 306.442 116.03 307.161C116.03 307.88 115.744 308.57 115.234 309.078C114.724 309.587 114.032 309.872 113.311 309.872Z" fill="#426572"/>
<path d="M486.67 309.872H409.972V304.45H486.67C487.391 304.45 488.083 304.736 488.593 305.244C489.103 305.753 489.389 306.442 489.389 307.161C489.389 307.88 489.103 308.57 488.593 309.078C488.083 309.587 487.391 309.872 486.67 309.872Z" fill="#426572"/>
<path d="M94.5445 309.872H17.8422V304.45H94.5445C95.2657 304.45 95.9573 304.736 96.4673 305.244C96.9772 305.753 97.2637 306.442 97.2637 307.161C97.2637 307.88 96.9772 308.57 96.4673 309.078C95.9573 309.587 95.2657 309.872 94.5445 309.872Z" fill="#426572"/>
<path d="M118.85 98.25H398.225C403.267 98.25 408.103 100.247 411.669 103.801C415.236 107.355 417.24 112.176 417.242 117.203V297.497H99.8323V117.203C99.8345 112.176 101.839 107.355 105.405 103.801C108.972 100.247 113.808 98.25 118.85 98.25Z" fill="#EBF0F9"/>
<path d="M406.211 112.077H112.123V279.583H406.211V112.077Z" fill="#A4A4A4"/>
<path d="M109.918 279.27H407.462C407.462 280.599 406.934 281.875 405.993 282.818C405.052 283.76 403.775 284.293 402.442 284.3H114.959C113.621 284.3 112.338 283.77 111.392 282.826C110.446 281.883 109.914 280.604 109.914 279.27H109.918Z" fill="white"/>
<g opacity="0.5">
<path opacity="0.5" d="M200.003 111.452L156.032 280.527H133.889L177.861 111.452H200.003Z" fill="white"/>
<path opacity="0.5" d="M256.442 111.452L212.474 280.527H166.039L210.01 111.452H256.442Z" fill="#A7BCD5"/>
</g>
<path d="M419.752 300H97.3223V109.12C97.3267 105.575 98.7412 102.176 101.255 99.6695C103.77 97.1627 107.178 95.7525 110.734 95.748H406.34C409.896 95.7525 413.305 97.1627 415.819 99.6695C418.334 102.176 419.748 105.575 419.752 109.12V300ZM102.342 294.995H414.732V109.12C414.73 106.902 413.845 104.775 412.272 103.206C410.699 101.638 408.565 100.755 406.34 100.753H110.734C108.509 100.755 106.376 101.638 104.803 103.206C103.229 104.775 102.345 106.902 102.342 109.12V294.995Z" fill="#426572"/>
<path d="M59.8015 291.529H465.786V292.86C465.786 297.174 464.067 301.312 461.008 304.362C457.948 307.413 453.798 309.127 449.471 309.127H76.1167C71.7897 309.127 67.6398 307.413 64.5801 304.362C61.5204 301.312 59.8015 297.174 59.8015 292.86V291.529Z" fill="#EBF0F9"/>
<path opacity="0.5" d="M463.707 300.013C462.815 302.327 461.239 304.316 459.189 305.719C457.139 307.122 454.71 307.872 452.224 307.871H70.8331C68.3479 307.871 65.9211 307.12 63.8726 305.717C61.8241 304.314 60.2501 302.325 59.358 300.013H463.707Z" fill="#A7BCD5"/>
<path d="M447.576 310.999H74.2257C69.2347 310.994 64.4496 309.014 60.9204 305.496C57.3912 301.977 55.406 297.206 55.4005 292.23V288.396H466.405V292.23C466.4 297.207 464.414 301.978 460.884 305.497C457.354 309.016 452.568 310.995 447.576 310.999ZM60.4666 293.402C60.761 296.837 62.3377 300.037 64.8847 302.368C67.4318 304.7 70.7637 305.994 74.2216 305.994H447.576C451.034 305.994 454.366 304.7 456.913 302.368C459.46 300.037 461.037 296.837 461.331 293.402H60.4666Z" fill="#426572"/>
<path d="M408.089 281.144H108.977V109.575H408.089V281.144ZM113.997 276.139H403.069V114.58H113.997V276.139Z" fill="#426572"/>
<path d="M361.256 58.3056V278.641H160.784V58.3056C160.792 57.3124 161.191 56.362 161.896 55.6597C162.6 54.9573 163.553 54.5594 164.549 54.5518H357.475C357.702 54.5519 357.929 54.5728 358.152 54.6143C359.019 54.7742 359.803 55.2301 360.37 55.9037C360.936 56.5774 361.25 57.4266 361.256 58.3056Z" fill="white"/>
<path d="M163.938 72.7623H361.888V59.507L358.102 54.5352H184.742H167.72L161.416 59.507V72.7623H163.938Z" fill="#F9F9F9"/>
<path d="M364.398 281.143H158.906V58.3053C158.912 56.648 159.576 55.0605 160.751 53.8886C161.926 52.7167 163.519 52.0554 165.181 52.0488H358.098C359.76 52.0554 361.352 52.7167 362.528 53.8886C363.703 55.0605 364.366 56.648 364.373 58.3053L364.398 281.143ZM163.926 276.138H359.378V58.3053C359.369 57.9761 359.234 57.6627 359.001 57.4298C358.767 57.197 358.453 57.0624 358.123 57.054H165.198C164.868 57.0624 164.553 57.197 164.32 57.4298C164.086 57.6627 163.951 57.9761 163.943 58.3053L163.926 276.138Z" fill="#426572"/>
<path d="M349.555 62.2588H173.209C171.816 62.2588 170.686 63.3848 170.686 64.7739C170.686 66.1629 171.816 67.289 173.209 67.289H349.555C350.948 67.289 352.078 66.1629 352.078 64.7739C352.078 63.3848 350.948 62.2588 349.555 62.2588Z" fill="#CADCE8"/>
<path d="M226.785 96.3652H185.567V143.193H226.785V96.3652Z" fill="#CACACA" fill-opacity="0.8"/>
<path d="M328.412 96.3652H230.676V143.193H328.412V96.3652Z" fill="#CACACA" fill-opacity="0.8"/>
<path d="M328.413 148.378H282.266V195.205H328.413V148.378Z" fill="#CACACA" fill-opacity="0.37"/>
<path d="M278.375 148.378H186.085V195.205H278.375V148.378Z" fill="#CACACA" fill-opacity="0.37"/>
<path d="M328.672 200.389H186.085V247.216H328.672V200.389Z" fill="#CACACA" fill-opacity="0.37"/>
<path d="M329.931 253.511H293.368V258.516H329.931V253.511Z" fill="#DDE4ED"/>
<path d="M130.195 266.708H70.3478C69.3624 266.715 68.3912 266.474 67.524 266.007C66.269 265.323 65.4658 264.201 65.4658 262.937L65.4993 180.911C65.5001 180.374 65.6446 179.847 65.9176 179.385C66.679 178.067 68.3984 177.141 70.3813 177.141H130.229C132.32 177.141 134.082 178.15 134.784 179.56C134.997 179.977 135.109 180.439 135.111 180.907L135.081 262.937C135.081 264.831 133.245 266.412 130.873 266.67C130.648 266.696 130.422 266.708 130.195 266.708Z" fill="white"/>
<path d="M131.822 266.078L71.954 266.065C70.9686 266.072 69.9974 265.831 69.1302 265.365C67.8752 264.681 67.072 263.559 67.072 262.295L67.1055 180.269C67.1063 179.732 67.2508 179.205 67.5238 178.742C68.2852 177.424 70.0046 176.498 71.9875 176.498H72.8033L72.7907 257.265C72.7907 258.516 73.6023 259.651 74.8489 260.335C75.7161 260.801 76.6873 261.042 77.6727 261.035H136.709V262.287C136.709 264.18 134.872 265.761 132.5 266.02C132.276 266.052 132.049 266.071 131.822 266.078Z" fill="#D6DEE9"/>
<path d="M131.007 268.58H71.1552C69.744 268.587 68.3538 268.239 67.114 267.567C65.0223 266.411 63.7673 264.443 63.7673 262.307L63.8008 180.281C63.8058 179.302 64.0699 178.343 64.5664 177.499C65.8214 175.351 68.3314 174.012 71.197 174.012H131.045C133.973 174.012 136.588 175.451 137.776 177.686L138.11 178.199V178.433C138.327 179.028 138.437 179.656 138.437 180.289L138.403 262.315C138.403 265.46 135.63 268.155 131.957 268.534C131.641 268.567 131.324 268.583 131.007 268.58ZM71.1845 178.996C70.0592 178.996 69.1806 179.492 68.9004 179.985C68.8455 180.068 68.8151 180.165 68.8125 180.264L68.779 262.29C68.779 262.566 69.0844 262.916 69.5404 263.17C70.0377 263.433 70.5926 263.567 71.1552 263.562H131.003C131.134 263.563 131.265 263.556 131.396 263.542C132.651 263.408 133.379 262.707 133.379 262.29L133.412 180.264C133.412 180.214 133.404 180.165 133.387 180.118L133.153 179.759C132.574 179.239 131.815 178.965 131.036 178.996H71.1887H71.1845Z" fill="#426572"/>
<path d="M124.104 212.636H83.5171V217.641H124.104V212.636Z" fill="#CACACA"/>
<path d="M124.104 202.191H83.5171V207.196H124.104V202.191Z" fill="#CACACA"/>
<path d="M124.104 224.469H83.5171V229.474H124.104V224.469Z" fill="#CACACA"/>
<path opacity="0.2" d="M448.459 118.454C451.383 112.983 453.178 106.982 453.738 100.807C454.298 94.6326 453.613 88.4084 451.721 82.5022C449.829 76.596 446.771 71.1273 442.725 66.4189C438.679 61.7105 433.729 57.8577 428.165 55.0879C422.602 52.318 416.538 50.6873 410.332 50.2918C404.127 49.8963 397.904 50.7442 392.032 52.7853C386.161 54.8264 380.758 58.0195 376.144 62.1761C371.53 66.3327 367.798 71.3686 365.168 76.9866C361.535 83.7874 359.657 91.3824 359.703 99.0872C359.749 106.792 361.717 114.364 365.429 121.122C369.142 127.879 374.483 133.609 380.97 137.796C387.458 141.982 394.889 144.493 402.592 145.103C401.248 145.42 399.883 145.677 398.497 145.874C405.789 146.923 413.227 146.231 420.199 143.855C427.171 141.48 433.479 137.489 438.603 132.21C442.703 128.263 446.043 123.601 448.459 118.454Z" fill="#606060"/>
<path d="M401.086 134.263C426.801 134.263 447.647 113.479 447.647 87.8399C447.647 62.2012 426.801 41.417 401.086 41.417C375.371 41.417 354.525 62.2012 354.525 87.8399C354.525 113.479 375.371 134.263 401.086 134.263Z" fill="#FF6D6D"/>
<path d="M445.426 91.1563C445.424 97.8122 443.988 104.39 441.213 110.444C438.439 116.497 434.391 121.886 429.345 126.243C424.298 130.6 418.371 133.825 411.965 135.698C405.56 137.571 398.825 138.049 392.217 137.1C403.297 135.503 413.428 129.979 420.756 121.541C428.084 113.103 432.117 102.316 432.117 91.1542C432.117 79.9928 428.084 69.2051 420.756 60.7671C413.428 52.3291 403.297 46.8058 392.217 45.2089C398.825 44.2586 405.561 44.7363 411.968 46.6094C418.374 48.4825 424.302 51.7073 429.349 56.0651C434.396 60.4229 438.444 65.8119 441.218 71.8664C443.993 77.921 445.429 84.4997 445.43 91.1563H445.426Z" fill="#FF5E5E"/>
<path d="M399.978 138.972C390.272 138.972 380.785 136.103 372.715 130.727C364.645 125.351 358.356 117.71 354.642 108.77C350.928 99.8296 349.956 89.9923 351.849 80.5017C353.743 71.0111 358.416 62.2934 365.279 55.4511C372.142 48.6087 380.885 43.949 390.404 42.0612C399.923 40.1734 409.79 41.1423 418.756 44.8453C427.723 48.5484 435.387 54.8193 440.779 62.8651C446.171 70.9108 449.049 80.37 449.049 90.0466C449.034 103.018 443.86 115.454 434.66 124.626C425.461 133.798 412.988 138.958 399.978 138.972ZM399.978 46.1305C391.265 46.1305 382.748 48.7063 375.504 53.5324C368.26 58.3584 362.614 65.2178 359.28 73.2432C355.946 81.2686 355.073 90.0995 356.773 98.6192C358.473 107.139 362.668 114.965 368.829 121.107C374.989 127.249 382.839 131.432 391.384 133.127C399.929 134.822 408.786 133.952 416.835 130.628C424.884 127.304 431.764 121.674 436.605 114.452C441.445 107.229 444.029 98.7374 444.029 90.0508C444.016 78.4061 439.371 67.2419 431.113 59.0078C422.854 50.7738 411.657 46.1426 399.978 46.1305Z" fill="#426572"/>
<path d="M415.854 79.6296L412.722 76.5029L400.308 88.8986L387.893 76.5029L384.762 79.6296L397.176 92.0252L384.762 104.421L387.893 107.547L400.308 95.1518L412.722 107.547L415.854 104.421L403.439 92.0252L415.854 79.6296Z" fill="white"/>
</g>
<defs>
<linearGradient id="paint0_linear" x1="10.0296" y1="156.077" x2="534.325" y2="156.077" gradientUnits="userSpaceOnUse">
<stop stop-color="#CACACA"/>
<stop offset="1" stop-color="#BDBDBD"/>
</linearGradient>
<clipPath id="clip0">
<rect width="538" height="311" fill="white"/>
</clipPath>
</defs>
</svg>
