<?xml version="1.0" encoding="utf-8"?>
<!-- Generator: Adobe Illustrator 26.5.0, SVG Export Plug-In . SVG Version: 6.00 Build 0)  -->
<svg version="1.1" id="Layer_1" xmlns="http://www.w3.org/2000/svg" xmlns:xlink="http://www.w3.org/1999/xlink" x="0px" y="0px"
	 viewBox="0 0 373 373" style="enable-background:new 0 0 373 373;" xml:space="preserve">
<g id="Layer_1_00000138534472229336325220000015736193468915820477_">
	<path style="fill:#215171;" d="M240,32.3c0.7,0,1.4,0.7,1.4,1.4v24.9c0,0.7-0.7,1.4-1.4,1.4s-1.4-0.7-1.4-1.4V33.8
		C238.6,33,239.3,32.3,240,32.3z"/>
	<path style="fill:#215171;" d="M253.6,46.2c0,0.7-0.7,1.4-1.4,1.4h-24.9c-0.7,0-1.4-0.7-1.4-1.4s0.7-1.4,1.4-1.4h24.9
		C253.2,44.8,253.6,45.5,253.6,46.2z"/>
	<path style="fill:#215171;" d="M22.3,94.7c0.7,0,1.1,0.4,1.1,0.7v16.4c0,0.4-0.4,0.7-0.7,0.7h-0.4c-0.4,0-0.7-0.4-0.7-0.7V95.4
		C21.6,94.7,21.6,94.7,22.3,94.7z"/>
	<path style="fill:#215171;" d="M31.2,103.2c0,0.7-0.4,1.1-0.7,1.1H14.1c-0.4,0-0.7-0.4-0.7-0.7v-0.4c0-0.4,0.4-0.7,0.7-0.7h16.4
		C30.8,102.5,31.2,102.9,31.2,103.2z"/>
	<path style="fill:#215171;" d="M350.9,120.7h0.7c0.4,0,0.7,0.4,0.7,0.7v20c0,0.4-0.4,0.7-0.7,0.7h-0.7c-0.4,0-0.7-0.4-0.7-0.7v-20
		C350.1,121.1,350.5,120.7,350.9,120.7z"/>
	<path style="fill:#215171;" d="M361.9,131v0.7c0,0.4-0.4,0.7-0.7,0.7h-20c-0.4,0-0.7-0.4-0.7-0.7V131c0-0.4,0.4-0.7,0.7-0.7h20.3
		C361.6,130.3,361.9,130.7,361.9,131z"/>
	<path style="fill:#215171;" d="M113.2,43.4c0-0.4,0-0.4,0.4-0.4h8.9c0.4,0,0.4,0.4,0.4,0.4v0.4c0,0.4-0.4,0.4-0.4,0.4h-8.9
		C113.2,44.1,113.2,43.7,113.2,43.4z"/>
	<path style="fill:#215171;" d="M117.8,48.4c-0.4,0-0.4-0.4-0.4-0.4v-8.9c0-0.4,0.4-0.4,0.4-0.4h0.4c0.4,0,0.4,0.4,0.4,0.4V48
		C118.5,48.4,118.1,48.4,117.8,48.4z"/>
	<path style="fill:#215171;" d="M177.3,74c0-0.4,0.4-0.4,0.4-0.4h8.9c0.4,0,0.4,0.4,0.4,0.4v0.4c0,0.4-0.4,0.4-0.4,0.4h-8.9
		C177.7,74.7,177.3,74.4,177.3,74z"/>
	<path style="fill:#215171;" d="M181.9,79c-0.4,0-0.4-0.4-0.4-0.4v-8.9c0-0.4,0.4-0.4,0.4-0.4h0.4c0.4,0,0.4,0.4,0.4,0.4v8.9
		C182.7,78.7,182.7,79,181.9,79z"/>
	<path style="fill:#215171;" d="M299.9,73.7c0-0.4,0.4-0.4,0.4-0.4h8.9c0.4,0,0.4,0.4,0.4,0.4V74c0,0.4-0.4,0.4-0.4,0.4h-8.9
		C300.3,74,299.9,74,299.9,73.7z"/>
	<path style="fill:#215171;" d="M304.9,78.7c-0.4,0-0.4-0.4-0.4-0.4v-8.9c0-0.4,0.4-0.4,0.4-0.4h0.4c0.4,0,0.4,0.4,0.4,0.4v8.9
		C305.2,78.3,305.2,78.7,304.9,78.7z"/>
</g>
<g id="Layer_2_00000137848986590306150890000017408147311470990739_">
</g>
<g id="Layer_3">
</g>
<g>
	<g id="_502_progress_outline">
		<g id="ahcQ9Z">
			<path style="fill:none;stroke:#093F68;stroke-width:5;stroke-linecap:round;stroke-linejoin:round;stroke-miterlimit:4.06;" d="
				M230.6,176.2c-0.2-4-3-7.4-6.9-8.3c-3.3-0.7-6.7-1.3-10-1.8c-0.9-0.1-1.7-0.7-2-1.6c-1-2.6-2.1-5.3-3.3-7.9
				c-0.4-0.6-0.3-1.4,0.2-2c2-2.8,4.1-5.5,5.9-8.4c2.2-3.3,1.9-7.7-0.8-10.7c-3.1-3.4-6.4-6.5-9.6-9.8c-3.3-3.7-8.9-4.2-12.9-1.2
				c-2.5,1.7-5,3.5-7.5,5.3c-0.6,0.5-1.4,0.6-2,0.2c-2.8-1.3-5.7-2.6-8.6-3.5c-0.7-0.2-1.2-0.8-1.3-1.6c-0.5-3.1-1-6.1-1.5-9.2
				c-0.7-4.4-4.4-7.8-8.9-7.9c-4.7-0.1-9.5,0-14.2,0c-4.1,0.1-7.7,3-8.6,7c-0.7,3.4-1.3,6.9-1.9,10.3c-0.1,0.7-0.6,1.4-1.3,1.6
				c-2.8,1.1-5.5,2.3-8.2,3.5c-0.6,0.4-1.4,0.3-1.9-0.2c-2.7-2-5.5-4-8.3-5.9c-3.3-2.3-7.8-2-10.9,0.7c-3.6,3.3-7.1,6.7-10.3,10.3
				c-3.2,3.3-3.5,8.5-0.6,12.1c1.8,2.6,3.8,5.1,5.6,7.9c0.2,0.4,0.3,0.9,0.1,1.4c-1.1,3-2.3,5.9-3.6,8.8c-0.2,0.4-0.6,0.8-1.1,0.9
				c-3.1,0.6-6.1,1.1-9.2,1.6c-4.5,0.5-8.1,4.2-8.3,8.7c-0.2,4.9-0.1,9.8,0,14.8c0.2,3.9,3,7.3,6.8,8.2c3.5,0.8,7.1,1.3,10.6,1.9
				c0.7,0.1,1.3,0.5,1.5,1.2c1.1,2.8,2.3,5.6,3.5,8.4c0.3,0.6,0.3,1.3-0.2,1.8c-1.9,2.6-3.7,5.1-5.5,7.7c-2.9,3.8-2.4,9.2,1.1,12.4
				c3,3,5.9,6,8.9,8.9c3.3,3.7,9,4.2,12.9,1c2.6-1.8,5.1-3.6,7.7-5.5c0.5-0.4,1.2-0.5,1.7-0.1c2.6,1.1,5.1,2.2,7.9,3.2
				c0.8,0.2,1.4,1,1.5,1.9c0.5,3,1,6,1.5,9.1c0.6,4.3,4.1,7.7,8.5,7.9c5,0.2,9.9,0.2,14.9,0c4-0.2,7.4-3,8.3-6.9
				c0.7-3.3,1.2-6.7,1.8-10.1c0-0.8,0.6-1.5,1.4-1.7c2.8-1.1,5.5-2.2,8.3-3.4c0.6-0.3,1.3-0.2,1.8,0.2c2.6,1.9,5.1,3.7,7.7,5.5
				c1.8,1.3,4,2,6.2,1.9c2.1,0,4-0.8,5.5-2.3c3.2-3.1,6.4-6.2,9.5-9.4c3.8-3.3,4.4-9.1,1.2-13c-1.7-2.5-3.5-5-5.3-7.5
				c-0.4-0.5-0.5-1.2-0.2-1.8c1.2-2.8,2.4-5.5,3.5-8.4c0.2-0.7,0.8-1.2,1.6-1.3c3.1-0.5,6.1-1,9.2-1.5c4.5-0.6,7.8-4.3,8-8.8
				C230.8,185.9,230.8,181,230.6,176.2z M154.9,216.2c-18.1,0-32.7-14.7-32.7-32.8s14.7-32.7,32.8-32.7s32.7,14.7,32.7,32.8l0,0
				C187.6,201.7,172.9,216.3,154.9,216.2L154.9,216.2z"/>
		</g>
	</g>
	<g id="_502_progress_outline_00000003086440708535841760000009302931969401185960_">
		<g id="ahcQ9Z_00000039120414889925041220000010981714445557616829_">
			<path style="fill:none;stroke:#093F68;stroke-width:5;stroke-linecap:round;stroke-linejoin:round;stroke-miterlimit:4.06;" d="
				M291.2,212.1c-0.7-1.9-2.6-3-4.6-2.8c-1.7,0.2-3.4,0.5-5.1,0.8c-0.5,0.1-0.9-0.1-1.2-0.5c-0.9-1.1-1.9-2.2-2.8-3.2
				c-0.3-0.2-0.4-0.6-0.2-1c0.5-1.6,1-3.3,1.5-5c0.5-1.9-0.3-4-2.1-5c-2-1.1-4.1-2.1-6.1-3.1c-2.2-1.2-4.9-0.6-6.3,1.5
				c-0.9,1.2-1.8,2.5-2.7,3.7c-0.2,0.3-0.6,0.5-0.9,0.4c-1.6-0.1-3.1-0.3-4.7-0.3c-0.4,0-0.7-0.2-0.9-0.5c-0.7-1.4-1.5-2.8-2.2-4.1
				c-1-2-3.3-3-5.5-2.3c-2.3,0.7-4.5,1.5-6.7,2.3c-2,0.7-3.2,2.7-3,4.7c0.2,1.8,0.5,3.5,0.8,5.2c0.1,0.4-0.1,0.7-0.4,1
				c-1.1,1-2.3,2-3.4,3c-0.2,0.3-0.6,0.4-0.9,0.2c-1.6-0.5-3.2-1-4.9-1.5c-2-0.5-4,0.3-5.1,2.1c-1.2,2.1-2.3,4.4-3.2,6.6
				c-1,2.1-0.3,4.6,1.7,5.8c1.3,0.9,2.6,1.8,3.9,2.9c0.2,0.2,0.3,0.4,0.3,0.7c-0.1,1.6-0.1,3.2-0.3,4.8c0,0.2-0.2,0.5-0.4,0.6
				c-1.4,0.8-2.7,1.5-4.1,2.2c-2.1,1-3.2,3.3-2.5,5.5c0.7,2.4,1.5,4.7,2.4,7c0.7,1.8,2.6,3,4.6,2.8c1.8-0.2,3.6-0.5,5.4-0.8
				c0.3-0.1,0.7,0.1,0.9,0.3c1,1.2,2,2.3,3,3.4c0.2,0.2,0.3,0.6,0.2,0.9c-0.5,1.5-0.9,3-1.4,4.6c-0.8,2.3,0.3,4.8,2.5,5.7
				c1.9,1,3.8,1.9,5.7,2.8c2.2,1.2,5,0.5,6.3-1.6c0.9-1.3,1.9-2.6,2.8-3.9c0.2-0.3,0.5-0.4,0.8-0.3c1.4,0.1,2.8,0.2,4.3,0.3
				c0.4,0,0.8,0.2,1,0.6c0.7,1.4,1.4,2.7,2.2,4.1c1,2,3.2,3,5.3,2.4c2.4-0.7,4.7-1.5,7.1-2.4c1.9-0.7,3-2.6,2.8-4.6
				c-0.2-1.7-0.5-3.4-0.8-5.1c-0.1-0.4,0-0.8,0.4-1.1c1.2-1,2.3-1.9,3.4-3c0.2-0.2,0.6-0.3,0.9-0.2c1.5,0.5,3,0.9,4.6,1.4
				c1.1,0.3,2.2,0.3,3.3-0.1c1-0.3,1.8-1,2.3-2c1-2,2-4,3-6c1.3-2.2,0.6-5-1.6-6.4c-1.2-0.9-2.5-1.8-3.7-2.7
				c-0.3-0.2-0.4-0.5-0.4-0.8c0.1-1.5,0.2-3,0.3-4.5c0-0.4,0.2-0.7,0.6-0.9c1.4-0.7,2.8-1.5,4.1-2.2c2-1,3-3.3,2.4-5.5
				C292.9,216.7,292.1,214.4,291.2,212.1z M261.7,243.4c-8.6,2.9-17.9-1.7-20.8-10.3c-2.9-8.6,1.7-17.9,10.3-20.8
				c8.6-2.9,17.9,1.7,20.8,10.3l0,0C274.9,231.2,270.2,240.5,261.7,243.4L261.7,243.4z"/>
		</g>
	</g>
</g>
</svg>
