<?xml version="1.0" encoding="utf-8"?>
<!-- Generator: Adobe Illustrator 25.4.1, SVG Export Plug-In . SVG Version: 6.00 Build 0)  -->
<svg version="1.1" id="Layer_1" xmlns="http://www.w3.org/2000/svg" xmlns:xlink="http://www.w3.org/1999/xlink" x="0px" y="0px"
	 viewBox="0 0 97.8 85" style="enable-background:new 0 0 97.8 85;" xml:space="preserve">
<g id="Layer_2_00000113332323140316532420000013368240088526420630_">
	<g id="Layer_1-2">
		<ellipse style="fill:#BAC9D3;" cx="48.2" cy="81.5" rx="23.5" ry="3.5"/>
		<path style="fill:#215171;" d="M63.6,0L63.6,0C63.8,0,64,0.2,64,0.4v7c0,0.2-0.2,0.4-0.4,0.4l0,0c-0.2,0-0.4-0.2-0.4-0.4v-7
			C63.2,0.2,63.4,0,63.6,0z"/>
		<path style="fill:#215171;" d="M67.4,3.9L67.4,3.9c0,0.2-0.2,0.4-0.4,0.4h-7c-0.2,0-0.4-0.2-0.4-0.4l0,0c0-0.2,0.2-0.4,0.4-0.4h7
			C67.3,3.5,67.4,3.7,67.4,3.9z"/>
		<path style="fill:#215171;" d="M2.5,17.5L2.5,17.5c0.2,0,0.3,0.1,0.3,0.2v4.6c0,0.1-0.1,0.2-0.2,0.2H2.5c-0.1,0-0.2-0.1-0.2-0.2
			v-4.6C2.3,17.5,2.3,17.5,2.5,17.5z"/>
		<path style="fill:#215171;" d="M5,19.9L5,19.9c0,0.2-0.1,0.3-0.2,0.3H0.2C0.1,20.2,0,20.1,0,20v-0.1c0-0.1,0.1-0.2,0.2-0.2h4.6
			C4.9,19.7,5,19.8,5,19.9z"/>
		<path style="fill:#215171;" d="M94.7,24.8h0.2c0.1,0,0.2,0.1,0.2,0.2v5.6c0,0.1-0.1,0.2-0.2,0.2h-0.2c-0.1,0-0.2-0.1-0.2-0.2V25
			C94.5,24.9,94.6,24.8,94.7,24.8z"/>
		<path style="fill:#215171;" d="M97.8,27.7v0.2c0,0.1-0.1,0.2-0.2,0.2H92c-0.1,0-0.2-0.1-0.2-0.2v-0.2c0-0.1,0.1-0.2,0.2-0.2h5.7
			C97.7,27.5,97.8,27.6,97.8,27.7z"/>
	</g>
</g>
<path style="fill:none;stroke:#215171;stroke-linecap:round;stroke-miterlimit:10;" d="M68,41.8c0,8.8,0,25.8,0,25.8
	c0,0.4-0.4,0.8-0.9,0.8H29.5c-0.5,0-0.9-0.3-0.9-0.8V22.9c0-0.4,0.4-0.8,0.9-0.8c0,0,16.1,0,23.9,0"/>
<circle style="fill:none;stroke:#215171;stroke-miterlimit:10;" cx="66" cy="28.4" r="10.5"/>
<path style="fill:#215171;stroke:#215171;stroke-width:0.5;stroke-linecap:round;stroke-miterlimit:10;" d="M61.2,32.8L61.2,32.8
	c-0.1-0.1-0.1-0.3,0-0.4l9.2-9.2c0.1-0.1,0.3-0.1,0.4,0l0,0c0.1,0.1,0.1,0.3,0,0.4l-9.2,9.2C61.5,33,61.3,33,61.2,32.8z"/>
<path style="fill:#215171;stroke:#215171;stroke-width:0.5;stroke-linecap:round;stroke-miterlimit:10;" d="M70.8,32.8L70.8,32.8
	c-0.1,0.1-0.3,0.1-0.4,0l-9.2-9.2c-0.1-0.1-0.1-0.3,0-0.4l0,0c0.1-0.1,0.3-0.1,0.4,0l9.2,9.2C70.9,32.6,70.9,32.7,70.8,32.8z"/>
<g>
	<path style="fill:#BAC9D3;" d="M46.3,39.5H38c-0.5,0-0.9-0.4-0.9-0.9l0,0c0-0.5,0.4-0.9,0.9-0.9h8.3c0.5,0,0.9,0.4,0.9,0.9l0,0
		C47.2,39.1,46.8,39.5,46.3,39.5z"/>
	<path style="fill:#BAC9D3;" d="M54.7,47.6H38c-0.5,0-0.9-0.4-0.9-0.9v-0.1c0-0.5,0.4-0.9,0.9-0.9h16.7c0.5,0,0.9,0.4,0.9,0.9v0.1
		C55.5,47.2,55.1,47.6,54.7,47.6z"/>
	<path style="fill:#BAC9D3;" d="M55,55.6H38.2c-0.5,0-0.9-0.4-0.9-0.9v-0.2c0-0.5,0.4-0.9,0.9-0.9h16.9c0.5,0,0.9,0.4,0.9,0.9v0.2
		C55.9,55.2,55.5,55.6,55,55.6z"/>
</g>
<path style="fill:#215171;" d="M28,3.1C28,3,28,3,28.1,3h2.5c0.1,0,0.1,0.1,0.1,0.1v0.1c0,0.1-0.1,0.1-0.1,0.1h-2.5
	C28,3.3,28,3.2,28,3.1"/>
<path style="fill:#215171;" d="M29.3,4.5c-0.1,0-0.1-0.1-0.1-0.1V1.9c0-0.1,0.1-0.1,0.1-0.1h0.1c0.1,0,0.1,0.1,0.1,0.1v2.5
	C29.5,4.5,29.4,4.5,29.3,4.5"/>
<path style="fill:#215171;" d="M46,11.7c0-0.1,0.1-0.1,0.1-0.1h2.5c0.1,0,0.1,0.1,0.1,0.1v0.1c0,0.1-0.1,0.1-0.1,0.1h-2.5
	C46.1,11.9,46,11.8,46,11.7"/>
<path style="fill:#215171;" d="M47.3,13.1c-0.1,0-0.1-0.1-0.1-0.1v-2.5c0-0.1,0.1-0.1,0.1-0.1h0.1c0.1,0,0.1,0.1,0.1,0.1V13
	C47.5,13,47.5,13.1,47.3,13.1"/>
<path style="fill:#215171;" d="M80.4,11.6c0-0.1,0.1-0.1,0.1-0.1H83c0.1,0,0.1,0.1,0.1,0.1v0.1c0,0.1-0.1,0.1-0.1,0.1h-2.5
	C80.5,11.7,80.4,11.7,80.4,11.6"/>
<path style="fill:#215171;" d="M81.8,13c-0.1,0-0.1-0.1-0.1-0.1v-2.5c0-0.1,0.1-0.1,0.1-0.1h0.1c0.1,0,0.1,0.1,0.1,0.1v2.5
	C81.9,12.9,81.9,13,81.8,13"/>
</svg>
