<?xml version="1.0" encoding="utf-8"?>
<!-- Generator: Adobe Illustrator 25.4.1, SVG Export Plug-In . SVG Version: 6.00 Build 0)  -->
<svg version="1.1" id="Layer_1" xmlns="http://www.w3.org/2000/svg" xmlns:xlink="http://www.w3.org/1999/xlink" x="0px" y="0px"
	 viewBox="0 0 97.8 98.2" style="enable-background:new 0 0 97.8 98.2;" xml:space="preserve">
<g id="Layer_2_00000018942195405387867520000004191553102431565202_">
	<g id="Layer_1-2">
		<path style="fill:#FFFFFF;stroke:#215171;stroke-miterlimit:10;" d="M51.4,71.4l15.8,7.7c0.5,0.2,1.2-0.2,1.6-1l0,0l20.7-42.3
			c0.4-0.8,0.3-1.6-0.1-1.9l0,0L51.7,15.5c-0.4-0.2-0.9,0-1.2,0.4l-21,43c-0.4,0.8-0.3,1.6,0.1,1.8L51.4,71.4"/>
		
			<rect x="66.3" y="13.5" transform="matrix(0.4399 -0.898 0.898 0.4399 9.4624 78.0458)" style="fill:#DEE5EA;" width="2" height="35.9"/>
		
			<rect x="60.6" y="24.9" transform="matrix(0.4399 -0.898 0.898 0.4399 -3.9678 79.3507)" style="fill:#DEE5EA;" width="2" height="35.9"/>
		
			<rect x="57.6" y="31.2" transform="matrix(0.4399 -0.898 0.898 0.4399 -11.3532 80.1202)" style="fill:#DEE5EA;" width="2" height="35.9"/>
		
			<rect x="56.2" y="33.8" transform="matrix(0.4399 -0.898 0.898 0.4399 -14.5024 80.3431)" style="fill:#DEE5EA;" width="2" height="35.9"/>
		
			<rect x="50.1" y="46.4" transform="matrix(0.4399 -0.898 0.898 0.4399 -29.176 81.8851)" style="fill:#DEE5EA;" width="2" height="35.9"/>
		
			<rect x="51.4" y="43.7" transform="matrix(0.4399 -0.898 0.898 0.4399 -26.0376 81.5569)" style="fill:#DEE5EA;" width="2" height="35.9"/>
		
			<rect x="55.5" y="25.6" transform="matrix(0.4399 -0.898 0.898 0.4399 -0.5922 70.7834)" style="fill:#DEE5EA;" width="2" height="20.6"/>
		
			<rect x="57.9" y="28.7" transform="matrix(0.4399 -0.898 0.898 0.4399 -7.7889 78.2894)" style="fill:#DEE5EA;" width="2" height="33.3"/>
		<g id="Layer_2-2">
			<g id="Layer_1-2-2">
				<path style="fill:#FFFFFF;stroke:#215171;stroke-miterlimit:10;" d="M46,72.1h17.6c0.5,0,0.9-0.7,0.9-1.6l0,0V23.4
					c0-0.9-0.4-1.6-0.9-1.6H21.7c-0.5,0-0.9,0.4-0.9,0.9v47.9c0,0.9,0.4,1.6,0.9,1.6L46,72.1"/>
				<ellipse style="fill:#BAC9D3;" cx="48.3" cy="94.7" rx="23.5" ry="3.5"/>
				<path style="fill:#215171;" d="M2.5,17.5L2.5,17.5c0.2,0,0.3,0.1,0.3,0.2v4.6c0,0.1-0.1,0.2-0.2,0.2H2.5c-0.1,0-0.2-0.1-0.2-0.2
					v-4.6C2.3,17.5,2.3,17.5,2.5,17.5z"/>
				<path style="fill:#215171;" d="M0.2,19.7h4.6c0.1,0,0.2,0.1,0.2,0.2V20c0,0.1-0.1,0.2-0.2,0.2H0.2C0.1,20.2,0,20.1,0,20v-0.1
					C0,19.8,0.1,19.7,0.2,19.7z"/>
				<path style="fill:#215171;" d="M94.7,24.8h0.2c0.1,0,0.2,0.1,0.2,0.2v5.6c0,0.1-0.1,0.2-0.2,0.2h-0.2c-0.1,0-0.2-0.1-0.2-0.2V25
					C94.5,24.9,94.6,24.8,94.7,24.8z"/>
				<path style="fill:#215171;" d="M92,27.5h5.7c0.1,0,0.2,0.1,0.2,0.2v0.2c0,0.1-0.1,0.2-0.2,0.2H92"/>
			</g>
		</g>
		<rect x="24.8" y="28.2" style="fill:#DEE5EA;" width="35.9" height="2"/>
		<rect x="24.7" y="41" style="fill:#DEE5EA;" width="35.9" height="2"/>
		<rect x="24.7" y="48" style="fill:#DEE5EA;" width="35.9" height="2"/>
		<rect x="24.7" y="51" style="fill:#DEE5EA;" width="35.9" height="2"/>
		<rect x="24.7" y="64.9" style="fill:#DEE5EA;" width="35.9" height="2"/>
		<rect x="24.7" y="62" style="fill:#DEE5EA;" width="35.9" height="2"/>
		<rect x="24.7" y="37" style="fill:#DEE5EA;" width="20.6" height="2"/>
		<rect x="24.7" y="44.5" style="fill:#DEE5EA;" width="33.3" height="2"/>
	</g>
</g>
<path style="fill:#215171;" d="M63.6,0.1L63.6,0.1c0.2,0,0.4,0.2,0.4,0.4v7c0,0.2-0.2,0.4-0.4,0.4l0,0c-0.2,0-0.4-0.2-0.4-0.4v-7
	C63.2,0.3,63.4,0.1,63.6,0.1z"/>
<path style="fill:#215171;" d="M67.4,4L67.4,4c0,0.2-0.2,0.4-0.4,0.4h-7c-0.2,0-0.4-0.2-0.4-0.4l0,0c0-0.2,0.2-0.4,0.4-0.4h7
	C67.3,3.6,67.4,3.8,67.4,4z"/>
<path style="fill:#215171;" d="M27.9,3.2c0-0.1,0.1-0.1,0.1-0.1h2.5c0.1,0,0.1,0.1,0.1,0.1v0.1c0,0.1-0.1,0.1-0.1,0.1H28
	C28,3.4,27.9,3.4,27.9,3.2"/>
<path style="fill:#215171;" d="M29.3,4.7c-0.1,0-0.1-0.1-0.1-0.1V2c0-0.1,0.1-0.1,0.1-0.1h0.1c0.1,0,0.1,0.1,0.1,0.1v2.5
	C29.4,4.6,29.4,4.7,29.3,4.7"/>
<path style="fill:#215171;" d="M46,11.8c0-0.1,0.1-0.1,0.1-0.1h2.5c0.1,0,0.1,0.1,0.1,0.1v0.1c0,0.1-0.1,0.1-0.1,0.1h-2.5
	C46,12,46,11.9,46,11.8"/>
<path style="fill:#215171;" d="M47.3,13.2c-0.1,0-0.1-0.1-0.1-0.1v-2.5c0-0.1,0.1-0.1,0.1-0.1h0.1c0.1,0,0.1,0.1,0.1,0.1v2.5
	C47.5,13.2,47.4,13.2,47.3,13.2"/>
<path style="fill:#215171;" d="M80.4,11.7c0-0.1,0.1-0.1,0.1-0.1H83c0.1,0,0.1,0.1,0.1,0.1v0.1c0,0.1-0.1,0.1-0.1,0.1h-2.5
	C80.4,11.9,80.4,11.8,80.4,11.7"/>
<path style="fill:#215171;" d="M81.7,13.1c-0.1,0-0.1-0.1-0.1-0.1v-2.5c0-0.1,0.1-0.1,0.1-0.1h0.1c0.1,0,0.1,0.1,0.1,0.1V13
	C81.9,13.1,81.8,13.1,81.7,13.1"/>
</svg>
