<?xml version="1.0" encoding="utf-8"?>
<!-- Generator: Adobe Illustrator 26.0.1, SVG Export Plug-In . SVG Version: 6.00 Build 0)  -->
<svg version="1.1" id="Layer_1" xmlns="http://www.w3.org/2000/svg" xmlns:xlink="http://www.w3.org/1999/xlink" x="0px" y="0px"
	 viewBox="0 0 373 373" style="enable-background:new 0 0 373 373;" xml:space="preserve">
<path style="fill:#BAC9D3;" d="M187.655,336.764c46.253,0,83.748-5.585,83.748-12.474c0-6.888-37.495-12.473-83.748-12.473
	s-83.749,5.585-83.749,12.473C103.906,331.179,141.402,336.764,187.655,336.764z"/>
<path style="fill:#215171;" d="M240.029,32.327c0.712,0,1.426,0.713,1.426,1.426V58.7c0,0.712-0.713,1.426-1.426,1.426
	s-1.426-0.712-1.426-1.426V33.753C238.604,33.04,239.316,32.327,240.029,32.327z"/>
<path style="fill:#215171;" d="M253.571,46.227c0,0.712-0.713,1.426-1.426,1.426h-24.946c-0.713,0-1.427-0.712-1.427-1.426
	c0-0.712,0.713-1.426,1.427-1.426h24.946C253.215,44.801,253.571,45.513,253.571,46.227z"/>
<path style="fill:#215171;" d="M22.283,94.692c0.712,0,1.069,0.357,1.069,0.712v16.393c0,0.357-0.357,0.713-0.712,0.713h-0.357
	c-0.357,0-0.712-0.357-0.712-0.713V95.406C21.57,94.692,21.57,94.692,22.283,94.692z"/>
<path style="fill:#215171;" d="M31.192,103.246c0,0.712-0.357,1.069-0.712,1.069H14.087c-0.357,0-0.713-0.357-0.713-0.713v-0.356
	c0-0.357,0.357-0.713,0.713-0.713H30.48C30.835,102.533,31.192,102.89,31.192,103.246z"/>
<path style="fill:#215171;" d="M350.862,120.708h0.712c0.357,0,0.713,0.357,0.713,0.712v19.957c0,0.357-0.357,0.713-0.713,0.713
	h-0.712c-0.357,0-0.713-0.357-0.713-0.713v-19.955C350.149,121.065,350.506,120.708,350.862,120.708z"/>
<path style="fill:#215171;" d="M361.91,131.044v0.713c0,0.357-0.357,0.712-0.713,0.712h-19.956c-0.357,0-0.713-0.356-0.713-0.712
	v-0.713c0-0.356,0.357-0.712,0.713-0.712h20.313C361.553,130.331,361.91,130.688,361.91,131.044z"/>
<path style="fill:#215171;" d="M113.159,43.374c0-0.357,0-0.357,0.357-0.357h8.91c0.357,0,0.357,0.357,0.357,0.357v0.357
	c0,0.357-0.357,0.357-0.357,0.357h-8.91C113.159,44.087,113.159,43.73,113.159,43.374z"/>
<path style="fill:#215171;" d="M117.792,48.364c-0.356,0-0.356-0.357-0.356-0.357v-8.91c0-0.357,0.356-0.357,0.356-0.357h0.357
	c0.357,0,0.357,0.357,0.357,0.357v8.91C118.505,48.364,118.149,48.364,117.792,48.364z"/>
<path style="fill:#215171;" d="M177.307,74.023c0-0.357,0.356-0.357,0.356-0.357h8.91c0.357,0,0.357,0.357,0.357,0.357v0.357
	c0,0.357-0.357,0.357-0.357,0.357h-8.91C177.663,74.735,177.307,74.378,177.307,74.023z"/>
<path style="fill:#215171;" d="M181.941,79.012c-0.357,0-0.357-0.357-0.357-0.357v-8.91c0-0.357,0.357-0.357,0.357-0.357h0.357
	c0.356,0,0.356,0.357,0.356,0.357v8.91C182.653,78.655,182.653,79.012,181.941,79.012z"/>
<path style="fill:#215171;" d="M299.9,73.666c0-0.357,0.357-0.357,0.357-0.357h8.91c0.357,0,0.357,0.357,0.357,0.357v0.357
	c0,0.357-0.357,0.357-0.357,0.357h-8.91C300.257,74.023,299.9,74.023,299.9,73.666z"/>
<path style="fill:#215171;" d="M304.89,78.656c-0.357,0-0.357-0.357-0.357-0.357V69.39c0-0.357,0.357-0.357,0.357-0.357h0.357
	c0.357,0,0.357,0.357,0.357,0.357v8.91C305.247,78.299,305.247,78.656,304.89,78.656z"/>
<path style="fill:none;stroke:#215171;stroke-width:2;stroke-linecap:round;stroke-linejoin:round;stroke-miterlimit:10;" d="
	M134.287,191.064h104.001c4.208,0.022,7.614,3.427,7.636,7.636v80.696c-0.014,4.212-3.424,7.621-7.636,7.636H134.287
	c-4.212-0.007-7.629-3.42-7.636-7.636V198.7C126.666,194.488,130.075,191.079,134.287,191.064z"/>
<path style="fill:none;stroke:#215171;stroke-width:2;stroke-linecap:round;stroke-linejoin:round;stroke-miterlimit:10;" d="
	M179.986,244.222l-8.268,21.584h29.039l-7.636-21.888c7.375-3.8,10.275-12.86,6.475-20.235c-3.8-7.375-12.86-10.275-20.235-6.475
	c-7.375,3.8-10.275,12.86-6.475,20.235C174.429,240.433,176.927,242.819,179.986,244.222z"/>
<circle style="fill:none;stroke:#215171;stroke-width:2;stroke-linecap:round;stroke-linejoin:round;stroke-miterlimit:10;" cx="134.627" cy="200.942" r="2.072"/>
<circle style="fill:none;stroke:#215171;stroke-width:2;stroke-linecap:round;stroke-linejoin:round;stroke-miterlimit:10;" cx="238.404" cy="200.942" r="2.072"/>
<circle style="fill:none;stroke:#215171;stroke-width:2;stroke-linecap:round;stroke-linejoin:round;stroke-miterlimit:10;" cx="238.046" cy="278.192" r="2.072"/>
<ellipse transform="matrix(0.0709 -0.9975 0.9975 0.0709 -152.4085 392.7596)" style="fill:none;stroke:#215171;stroke-width:2;stroke-linecap:round;stroke-linejoin:round;stroke-miterlimit:10;" cx="134.627" cy="278.192" rx="2.072" ry="2.072"/>
<g>
	<path style="fill:none;stroke:#215171;stroke-width:2;stroke-linecap:round;stroke-linejoin:round;stroke-miterlimit:10;" d="
		M233.032,164.644c-0.347-12.185-5.21-23.806-13.642-32.613c-0.64-0.683-1.305-1.345-1.988-1.988
		c-18.301-17.206-47.087-16.313-64.289,1.988c-8.785,9.194-13.681,21.425-13.659,34.14v24.892h14.415v-24.892
		c-0.033-8.995,3.427-17.65,9.646-24.147c0.495-0.531,1.005-1.041,1.537-1.537c12.56-11.71,32.235-11.023,43.945,1.537
		c5.737,6.016,9.121,13.884,9.543,22.174"/>
	<path style="fill:none;stroke:#215171;stroke-width:2;stroke-linecap:round;stroke-linejoin:round;stroke-miterlimit:10;" d="
		M153.887,164.671c0.026,0,0.039,0,0.039,0c0.001-0.028,0.002-0.055,0.003-0.083"/>
	<path style="fill:none;stroke:#215171;stroke-width:2;stroke-linecap:round;stroke-linejoin:round;stroke-miterlimit:10;" d="
		M218.595,164.647c0.018,0.481,0.027,0.963,0.025,1.446v24.892h14.415v-24.892c0.001-0.379-0.003-0.758-0.011-1.136"/>
</g>
</svg>
