<?xml version="1.0" encoding="utf-8"?>
<!-- Generator: Adobe Illustrator 26.0.1, SVG Export Plug-In . SVG Version: 6.00 Build 0)  -->
<svg version="1.1" id="Layer_1" xmlns="http://www.w3.org/2000/svg" xmlns:xlink="http://www.w3.org/1999/xlink" x="0px" y="0px"
	 viewBox="0 0 300 300" style="enable-background:new 0 0 300 300;" xml:space="preserve">
<g id="Layer_2_00000113332323140316532420000013368240088526420630_">
	<g id="Layer_1-2">
		<ellipse style="fill:#BAC9D3;" cx="148.516" cy="260.823" rx="67.358" ry="10.032"/>
		<path style="fill:#215171;" d="M193.053,26L193.053,26c0.573,0,1.147,0.573,1.147,1.147v20.064c0,0.573-0.573,1.147-1.147,1.147
			l0,0c-0.573,0-1.147-0.573-1.147-1.147V27.147C191.907,26.573,192.48,26,193.053,26z"/>
		<path style="fill:#215171;" d="M203.945,37.179L203.945,37.179c0,0.573-0.573,1.147-1.147,1.147h-20.064
			c-0.573,0-1.147-0.573-1.147-1.147l0,0c0-0.573,0.573-1.147,1.147-1.147h20.064C203.659,36.032,203.945,36.605,203.945,37.179z"/>
		<path style="fill:#215171;" d="M17.922,76.16L17.922,76.16c0.573,0,0.86,0.287,0.86,0.573v13.185c0,0.287-0.287,0.573-0.573,0.573
			h-0.287c-0.287,0-0.573-0.287-0.573-0.573V76.734C17.349,76.16,17.349,76.16,17.922,76.16z"/>
		<path style="fill:#215171;" d="M25.088,83.039L25.088,83.039c0,0.573-0.287,0.86-0.573,0.86H11.33
			c-0.287,0-0.573-0.287-0.573-0.573v-0.287c0-0.287,0.287-0.573,0.573-0.573h13.185C24.801,82.466,25.088,82.753,25.088,83.039z"/>
		<path style="fill:#215171;" d="M282.195,97.084h0.573c0.287,0,0.573,0.287,0.573,0.573v16.051c0,0.287-0.287,0.573-0.573,0.573
			h-0.573c-0.287,0-0.573-0.287-0.573-0.573V97.658C281.622,97.371,281.909,97.084,282.195,97.084z"/>
		<path style="fill:#215171;" d="M291.081,105.397v0.573c0,0.287-0.287,0.573-0.573,0.573h-16.051c-0.287,0-0.573-0.287-0.573-0.573
			v-0.573c0-0.287,0.287-0.573,0.573-0.573h16.338C290.794,104.823,291.081,105.11,291.081,105.397z"/>
	</g>
</g>
<path style="fill:#215171;" d="M91.013,34.886c0-0.287,0-0.287,0.287-0.287h7.166c0.287,0,0.287,0.287,0.287,0.287v0.287
	c0,0.287-0.287,0.287-0.287,0.287H91.3C91.013,35.459,91.013,35.172,91.013,34.886"/>
<path style="fill:#215171;" d="M94.739,38.898c-0.287,0-0.287-0.287-0.287-0.287v-7.166c0-0.287,0.287-0.287,0.287-0.287h0.287
	c0.287,0,0.287,0.287,0.287,0.287v7.166C95.312,38.898,95.026,38.898,94.739,38.898"/>
<path style="fill:#215171;" d="M142.606,59.536c0-0.287,0.287-0.287,0.287-0.287h7.166c0.287,0,0.287,0.287,0.287,0.287v0.287
	c0,0.287-0.287,0.287-0.287,0.287h-7.166C142.893,60.109,142.606,59.822,142.606,59.536"/>
<path style="fill:#215171;" d="M146.333,63.549c-0.287,0-0.287-0.287-0.287-0.287v-7.166c0-0.287,0.287-0.287,0.287-0.287h0.287
	c0.287,0,0.287,0.287,0.287,0.287v7.166C146.906,63.262,146.906,63.549,146.333,63.549"/>
<path style="fill:#215171;" d="M241.207,59.249c0-0.287,0.287-0.287,0.287-0.287h7.166c0.287,0,0.287,0.287,0.287,0.287v0.287
	c0,0.287-0.287,0.287-0.287,0.287h-7.166C241.494,59.536,241.207,59.536,241.207,59.249"/>
<path style="fill:#215171;" d="M245.22,63.262c-0.287,0-0.287-0.287-0.287-0.287V55.81c0-0.287,0.287-0.287,0.287-0.287h0.287
	c0.287,0,0.287,0.287,0.287,0.287v7.166C245.507,62.975,245.507,63.262,245.22,63.262"/>
<g id="_502_progress_outline">
	<path style="fill:#093F68;" d="M241.537,214.884H61.086c-3.354-0.005-6.071-2.723-6.077-6.077V99.89
		c0-4.581,3.713-8.294,8.294-8.294h175.843c4.677,0,8.468,3.791,8.468,8.468v108.743
		C247.608,212.161,244.891,214.878,241.537,214.884z M56.95,100.87v107.937c0,2.284,1.851,4.135,4.135,4.135h180.452
		c2.282-0.005,4.13-1.854,4.135-4.135V101.036c0-4.141-3.357-7.498-7.498-7.498L64.273,93.547
		C60.229,93.547,56.95,96.826,56.95,100.87z"/>
	<path style="fill:#BAC9D3;" d="M101.845,104.002H71.618c-0.536,0-0.971-0.435-0.971-0.971c0-0.536,0.435-0.971,0.971-0.971h30.227
		c0.536,0,0.971,0.435,0.971,0.971C102.816,103.567,102.381,104.002,101.845,104.002z"/>
	<path style="fill:#BAC9D3;" d="M126.386,104.003h-18.56c-0.536,0-0.971-0.435-0.971-0.971c0-0.536,0.435-0.971,0.971-0.971h18.56
		c0.536,0,0.971,0.435,0.971,0.971C127.356,103.568,126.922,104.003,126.386,104.003L126.386,104.003z"/>
	<path style="fill:#BAC9D3;" d="M138.053,104.003h-6.29c-0.536,0-0.971-0.435-0.971-0.971c0-0.536,0.435-0.971,0.971-0.971h6.329
		c0.536,0,0.971,0.435,0.971,0.971c0,0.536-0.435,0.971-0.971,0.971H138.053z"/>
</g>
<circle style="fill:none;stroke:#BAC9D3;stroke-width:4;stroke-miterlimit:10;" cx="149.215" cy="154.539" r="36.572"/>
<path style="fill:none;stroke:#215171;stroke-width:4;stroke-linecap:round;stroke-miterlimit:10;" d="M185.325,162.749
	c-3.726,16.245-18.272,28.362-35.647,28.362c-20.198,0-36.572-16.374-36.572-36.572s16.374-36.572,36.572-36.572
	c4.616,0,9.033,0.855,13.1,2.416"/>
<g>
	<path style="fill:#215171;stroke:#215171;stroke-width:0.5;stroke-miterlimit:10;" d="M136.849,146.888v1.369l-6.678,13.968h-2.147
		l6.654-13.566v-0.048h-7.503v-1.722H136.849z"/>
	<path style="fill:#215171;stroke:#215171;stroke-width:0.5;stroke-miterlimit:10;" d="M139.497,159.843
		c0.59,0.377,1.959,0.966,3.398,0.966c2.667,0,3.492-1.698,3.469-2.972c-0.024-2.148-1.959-3.068-3.964-3.068h-1.156v-1.557h1.156
		c1.51,0,3.422-0.778,3.422-2.595c0-1.227-0.779-2.312-2.69-2.312c-1.228,0-2.407,0.543-3.067,1.014l-0.543-1.51
		c0.802-0.59,2.359-1.18,4.01-1.18c3.02,0,4.389,1.793,4.389,3.657c0,1.581-0.944,2.926-2.832,3.61v0.048
		c1.888,0.378,3.422,1.792,3.422,3.939c0,2.453-1.912,4.601-5.592,4.601c-1.722,0-3.232-0.542-3.987-1.037L139.497,159.843z"/>
	<path style="fill:#215171;stroke:#215171;stroke-width:0.5;stroke-miterlimit:10;" d="M163.028,151.206
		c0,3.232-1.698,4.837-3.681,4.837c-1.912,0-3.562-1.534-3.587-4.625c0-3.067,1.675-4.789,3.706-4.789
		C161.612,146.629,163.028,148.281,163.028,151.206z M157.413,151.348c-0.046,1.958,0.684,3.445,1.983,3.445
		c1.368,0,1.981-1.463,1.981-3.492c0-1.864-0.542-3.422-1.981-3.422C158.097,147.88,157.413,149.414,157.413,151.348z
		 M159.205,162.484l9.014-15.855h1.322l-9.014,15.855H159.205z M173.009,157.553c0,3.233-1.698,4.837-3.658,4.837
		c-1.91,0-3.562-1.533-3.585-4.601c0-3.09,1.675-4.812,3.704-4.812C171.616,152.977,173.009,154.628,173.009,157.553z
		 M167.393,157.695c-0.023,1.958,0.732,3.445,2.006,3.445c1.368,0,1.983-1.462,1.983-3.493c0-1.864-0.544-3.421-1.983-3.421
		C168.102,154.226,167.393,155.76,167.393,157.695z"/>
</g>
<path style="fill:#BAC9D3;" d="M95.192,111.05H72.006c-0.429,0-0.777-0.348-0.777-0.777s0.348-0.777,0.777-0.777h23.187
	c0.429,0,0.777,0.348,0.777,0.777S95.621,111.05,95.192,111.05z"/>
<path style="fill:#BAC9D3;" d="M86.856,119.097H72.006c-0.429,0-0.777-0.348-0.777-0.777s0.348-0.777,0.777-0.777h14.851
	c0.429,0,0.777,0.348,0.777,0.777S87.285,119.097,86.856,119.097L86.856,119.097z"/>
<path style="fill:#BAC9D3;" d="M95.192,119.097h-4.033c-0.429,0-0.777-0.348-0.777-0.777s0.348-0.777,0.777-0.777h4.064
	c0.429,0,0.777,0.348,0.777,0.777s-0.348,0.777-0.777,0.777H95.192z"/>
<path style="fill:#BAC9D3;" d="M79.431,128.681h-7.425c-0.429,0-0.777-0.348-0.777-0.777c0-0.429,0.348-0.777,0.777-0.777h7.425
	c0.429,0,0.777,0.348,0.777,0.777C80.208,128.334,79.86,128.681,79.431,128.681z"/>
<path style="fill:#BAC9D3;" d="M237.04,196.005H199.96c-0.53,0-0.96-0.43-0.96-0.96s0.43-0.96,0.96-0.96h37.079
	c0.53,0,0.96,0.43,0.96,0.96S237.57,196.005,237.04,196.005z"/>
<path style="fill:#BAC9D3;" d="M237.04,205.724h-16.941c-0.53,0-0.96-0.43-0.96-0.96s0.43-0.96,0.96-0.96h16.941
	c0.53,0,0.96,0.43,0.96,0.96S237.57,205.724,237.04,205.724z"/>
<path style="fill:#BAC9D3;" d="M208.719,205.724h-8.758c-0.53,0-0.96-0.43-0.96-0.96s0.43-0.96,0.96-0.96h8.758
	c0.53,0,0.96,0.43,0.96,0.96S209.249,205.724,208.719,205.724z"/>
</svg>
