<?xml version="1.0" encoding="utf-8"?>
<!-- Generator: Adobe Illustrator 26.3.1, SVG Export Plug-In . SVG Version: 6.00 Build 0)  -->
<svg version="1.1" id="Layer_1" xmlns="http://www.w3.org/2000/svg" xmlns:xlink="http://www.w3.org/1999/xlink" x="0px" y="0px"
	 viewBox="0 0 373 373" style="enable-background:new 0 0 373 373;" xml:space="preserve">
<g id="Layer_1_00000138534472229336325220000015736193468915820477_">
	<path style="fill:#215171;" d="M240.029,32.327c0.712,0,1.426,0.713,1.426,1.426V58.7c0,0.712-0.713,1.426-1.426,1.426
		s-1.426-0.712-1.426-1.426V33.753C238.604,33.04,239.316,32.327,240.029,32.327z"/>
	<path style="fill:#215171;" d="M253.571,46.227c0,0.712-0.713,1.426-1.426,1.426h-24.946c-0.713,0-1.427-0.712-1.427-1.426
		c0-0.712,0.713-1.426,1.427-1.426h24.946C253.215,44.801,253.571,45.513,253.571,46.227z"/>
	<path style="fill:#215171;" d="M22.283,94.692c0.712,0,1.069,0.357,1.069,0.712v16.393c0,0.357-0.357,0.713-0.712,0.713h-0.357
		c-0.357,0-0.712-0.357-0.712-0.713V95.406C21.57,94.692,21.57,94.692,22.283,94.692z"/>
	<path style="fill:#215171;" d="M31.192,103.246c0,0.712-0.357,1.069-0.712,1.069H14.087c-0.357,0-0.713-0.357-0.713-0.713v-0.356
		c0-0.357,0.357-0.713,0.713-0.713H30.48C30.835,102.533,31.192,102.89,31.192,103.246z"/>
	<path style="fill:#215171;" d="M350.862,120.708h0.712c0.357,0,0.713,0.357,0.713,0.712v19.957c0,0.357-0.357,0.713-0.713,0.713
		h-0.712c-0.357,0-0.713-0.357-0.713-0.713v-19.955C350.149,121.065,350.506,120.708,350.862,120.708z"/>
	<path style="fill:#215171;" d="M361.91,131.044v0.713c0,0.357-0.357,0.712-0.713,0.712h-19.956c-0.357,0-0.713-0.356-0.713-0.712
		v-0.713c0-0.356,0.357-0.712,0.713-0.712h20.313C361.553,130.331,361.91,130.688,361.91,131.044z"/>
	<path style="fill:#215171;" d="M113.159,43.374c0-0.357,0-0.357,0.357-0.357h8.91c0.357,0,0.357,0.357,0.357,0.357v0.357
		c0,0.357-0.357,0.357-0.357,0.357h-8.91C113.159,44.087,113.159,43.73,113.159,43.374z"/>
	<path style="fill:#215171;" d="M117.792,48.364c-0.356,0-0.356-0.357-0.356-0.357v-8.91c0-0.357,0.356-0.357,0.356-0.357h0.357
		c0.357,0,0.357,0.357,0.357,0.357v8.91C118.505,48.364,118.149,48.364,117.792,48.364z"/>
	<path style="fill:#215171;" d="M177.307,74.023c0-0.357,0.356-0.357,0.356-0.357h8.91c0.357,0,0.357,0.357,0.357,0.357v0.357
		c0,0.357-0.357,0.357-0.357,0.357h-8.91C177.663,74.735,177.307,74.378,177.307,74.023z"/>
	<path style="fill:#215171;" d="M181.941,79.012c-0.357,0-0.357-0.357-0.357-0.357v-8.91c0-0.357,0.357-0.357,0.357-0.357h0.357
		c0.356,0,0.356,0.357,0.356,0.357v8.91C182.653,78.655,182.653,79.012,181.941,79.012z"/>
	<path style="fill:#215171;" d="M299.9,73.666c0-0.357,0.357-0.357,0.357-0.357h8.91c0.357,0,0.357,0.357,0.357,0.357v0.357
		c0,0.357-0.357,0.357-0.357,0.357h-8.91C300.257,74.023,299.9,74.023,299.9,73.666z"/>
	<path style="fill:#215171;" d="M304.89,78.656c-0.357,0-0.357-0.357-0.357-0.357V69.39c0-0.357,0.357-0.357,0.357-0.357h0.357
		c0.357,0,0.357,0.357,0.357,0.357v8.91C305.247,78.299,305.247,78.656,304.89,78.656z"/>
</g>
<g id="Layer_2_00000137848986590306150890000017408147311470990739_">
</g>
<g id="Layer_3">
</g>
<g id="Layer_4">
	<g>
		<path style="fill:none;stroke:#215171;stroke-width:5;stroke-linecap:round;stroke-linejoin:round;stroke-miterlimit:10;" d="
			M169.607,213.01c-2.218,0.595-3.955,0.716-5.388,0.816c-3.234,0.226-4.845-0.277-6.082-0.55c-0.301-0.066-0.584-0.182-0.852-0.337
			c-4.926-2.852-9.852-5.704-14.778-8.556c-0.219-0.127-0.428-0.282-0.61-0.458c-2.052-1.982-3.491-3.863-4.455-5.284
			c-0.855-1.261-1.756-2.606-2.54-4.552c-0.048-0.118-0.09-0.244-0.124-0.367l-1.345-4.841c-0.168-0.604-0.552-1.124-1.089-1.447
			c-0.318-0.191-0.687-0.381-1.107-0.548c-0.008-0.003-0.015-0.006-0.023-0.009c-1.2-0.472-2.107-1.473-2.356-2.738
			c-0.303-1.537-0.65-3.127-1.05-4.763c-0.531-2.174-1.105-4.235-1.702-6.176c-0.52-1.689-0.819-3.441-0.749-5.206
			c0.001-0.016,0.001-0.031,0.002-0.047c0.001-0.013,0.001-0.026,0.002-0.038c0.08-1.768,1.709-3.061,3.462-2.821l0.618,0.084
			c0.175-1.618,0.911-6.473,4.898-10.776c3.678-3.969,8.001-5.18,9.633-5.551c6.694-0.054,13.388-0.109,20.083-0.163
			c1.801-0.578,4.022-1.485,6.368-2.939c1.484-0.92,2.731-1.881,3.755-2.776c3.211-2.939,6.422-5.878,9.633-8.817
			c3.374,5.061,6.749,10.123,10.123,15.184l3.348,16.012l0.618-0.084c1.753-0.239,3.382,1.054,3.462,2.821
			c0.001,0.013,0.001,0.026,0.002,0.038c0.001,0.016,0.001,0.031,0.002,0.047c0.071,1.766-0.229,3.517-0.749,5.206
			c-0.597,1.941-1.172,4.002-1.702,6.176c-0.399,1.636-0.747,3.226-1.05,4.763c-0.249,1.265-1.156,2.266-2.356,2.738
			c-0.442,0.176-0.811,0.366-1.129,0.557c-0.538,0.323-0.922,0.843-1.089,1.447l-1.345,4.841c-0.034,0.123-0.076,0.249-0.124,0.367
			c-0.783,1.946-1.685,3.291-2.54,4.552c-2.601,3.835-3.991,4.918-4.455,5.284c-0.253,0.199-0.45,0.343-0.61,0.458
			C177.565,209.365,174.239,211.768,169.607,213.01z"/>
		<path style="fill:none;stroke:#215171;stroke-width:5;stroke-linecap:round;stroke-linejoin:round;stroke-miterlimit:10;" d="
			M126.829,165.334l-0.327-3.265c-0.407-2.987-0.778-7.068-0.653-11.919c0.066-2.563,0.169-5.994,0.98-10.123
			c0.696-3.543,2.158-8.852,5.551-14.858c2.163-2.781,6.352-7.368,13.062-10.45c6.806-3.125,12.749-3.113,18.287-3.102
			c6.623,0.013,12.2,0.025,18.287,3.265c7.181,3.823,10.687,9.863,12.409,12.899c4.07,7.176,4.632,13.85,5.225,20.899
			c0.509,6.046,0.205,11.084-0.163,14.531l-0.163,2.286"/>
		<path style="fill:none;stroke:#215171;stroke-width:5;stroke-linecap:round;stroke-linejoin:round;stroke-miterlimit:10;" d="
			M242.998,195.458c-5.931,3.648-13.545,7.654-22.777,11.021c-8.306,3.03-15.911,4.809-22.287,5.878
			c0.152,9.264,1.507,22.185,6.857,36.492c10.148,27.137,28.63,43.11,37.716,49.962"/>
		<path style="fill:none;stroke:#215171;stroke-width:5;stroke-linecap:round;stroke-linejoin:round;stroke-miterlimit:10;" d="
			M242.876,195.336c5.931,3.648,13.545,7.654,22.777,11.021c8.306,3.03,15.911,4.809,22.287,5.878
			c-0.152,9.264-1.507,22.185-6.857,36.492c-10.148,27.137-28.63,43.11-37.716,49.962"/>
		<path style="fill:none;stroke:#215171;stroke-width:5;stroke-linecap:round;stroke-linejoin:round;stroke-miterlimit:10;" d="
			M223.405,234.399c13.062,0.082,26.124,0.163,39.186,0.245c0,4.735,0,9.47,0,14.205c-0.111,2.143-0.7,8.094-5.143,13.715
			c-5.051,6.391-11.747,8.134-13.715,8.572c-1.912-0.312-9.376-1.757-14.939-8.572c-4.634-5.677-5.266-11.793-5.388-13.96
			C223.405,243.869,223.405,239.134,223.405,234.399z"/>
		<path style="fill:none;stroke:#215171;stroke-width:5;stroke-linecap:round;stroke-linejoin:round;stroke-miterlimit:10;" d="
			M228.548,234.399c-1.5-5.897,0.05-12.001,4.163-15.919c3.855-3.672,8.564-4.092,10.041-4.163c1.254,0.053,6.76,0.422,11.021,4.898
			c5.787,6.078,4.073,14.262,3.919,14.94"/>
		<g>
			<path style="fill:none;stroke:#215171;stroke-width:5;stroke-linecap:round;stroke-linejoin:round;stroke-miterlimit:10;" d="
				M141.525,205.663l0.249,6.468c0.086,2.243-0.219,4.502-1.054,6.586c-0.685,1.711-1.755,3.479-3.44,4.906
				c-2.051,1.736-4.219,2.237-5.551,2.612c-8.584,2.417-15.564,3.955-20.246,4.898c-9.904,1.996-14.928,3.071-18.613,5.878
				c-2.719,2.071-4.644,4.542-6.014,6.875c-1.333,2.27-2.102,4.822-2.277,7.448c-0.883,13.24-1.765,26.48-2.648,39.72"/>
			<path style="fill:none;stroke:#215171;stroke-width:5;stroke-linecap:round;stroke-linejoin:round;stroke-miterlimit:10;" d="
				M136.952,224.358l10,20.042l16.654-13.919l-22.246-13.593c-0.167,0.905-0.626,2.16-1.551,3.674
				C138.846,222.138,137.699,223.797,136.952,224.358z"/>
		</g>
		<g>
			<path style="fill:none;stroke:#215171;stroke-width:5;stroke-linecap:round;stroke-linejoin:round;stroke-miterlimit:10;" d="
				M185.037,205.158l-0.249,6.468c-0.086,2.243,0.219,4.502,1.054,6.586c0.685,1.711,1.755,3.479,3.44,4.906
				c2.051,1.736,4.219,2.237,5.551,2.612c1.564,0.44,3.075,0.852,4.529,1.235"/>
			<path style="fill:none;stroke:#215171;stroke-width:5;stroke-linecap:round;stroke-linejoin:round;stroke-miterlimit:10;" d="
				M189.61,223.853l-10.001,20.042l-16.654-13.919l22.246-13.593c0.167,0.905,0.626,2.16,1.551,3.674
				C187.717,221.633,188.863,223.291,189.61,223.853z"/>
		</g>
	</g>
</g>
</svg>
